<?xml version="1.0" encoding="utf-8" ?>
<svg baseProfile="full" height="78.74049617443234" version="1.1" width="99.64780002832413" xmlns="http://www.w3.org/2000/svg" xmlns:ev="http://www.w3.org/2001/xml-events" xmlns:xlink="http://www.w3.org/1999/xlink"><defs /><rect fill="white" height="78.74049617443234" width="99.64780002832413" x="0" y="0" /><path d="M26.963675506412983, 42.852431358769536 m3.8677948713302612, -0.5331569537520409 l3.9103227853775024, 0.05110655911266804 3.87100487947464, 0.4590550437569618 l3.782007396221161, 0.9867801517248154 3.6298716068267822, 1.4429913461208344 l3.8048046827316284, 0.8601517230272293 3.908819854259491, 0.12361651286482811 l3.911401629447937, 0.0 3.9114058017730713, 0.0 l3.911185562610626, -0.034447028301656246 3.7996649742126465, -0.856923833489418 m0.5355488881468773, 0.0 l1.1040488630533218, -3.4970614314079285 3.333522081375122, 0.516105443239212 l0.402720645070076, 3.8048645853996277 -3.069097399711609, 2.4251195788383484 l-3.8985979557037354, 1.033138856291771 -3.926185369491577, 0.917690098285675 l-3.9883795380592346, 0.5865834653377533 -3.8928821682929993, 1.054222285747528 l-3.9287811517715454, 0.8927988260984421 -4.005860984325409, 0.18065890297293663 l-3.993191421031952, -0.5315770208835602 -3.8211822509765625, -1.2697641551494598 l-3.776751458644867, -1.3183188438415527 -3.9580824971199036, -0.7469949126243591 l-3.811354637145996, -1.296747475862503 -3.5774531960487366, -1.8593475222587585 m44.986023902893066, -1.0663139075040817 l-3.4796658158302307, 1.7035239934921265 -3.780105412006378, 0.9955199062824249 l-3.6539170145988464, 1.372157335281372 -3.66391658782959, 1.3365262746810913 l-3.6767402291297913, 1.2690521776676178 -3.5741791129112244, 1.5821154415607452 l-3.8777747750282288, 0.3049393929541111 m-17.49456524848938, -10.888065099716187 l-0.8925798535346985, -3.8198283314704895 0.0, -3.9487025141716003 l0.5869244411587715, -3.8616690039634705 2.9301804304122925, -2.195340096950531 l3.8850733637809753, 0.39522685110569 3.8281720876693726, 0.6705331057310104 l3.915441632270813, -0.4597030207514763 3.2065415382385254, -2.106136679649353 l3.7836474180221558, -1.1022809147834778 m0.5355469137430191, 0.0 l4.268039762973785, 0.17483506351709366 3.8497912883758545, 1.6067606210708618 l3.4722381830215454, 2.5089552998542786 3.9392048120498657, 1.6627271473407745 l3.3152183890342712, 2.4244555830955505 2.8616154193878174, 3.160346746444702 l3.28612744808197, 2.7488604187965393 m-23.564107418060303, 11.421226263046265 l-4.239484369754791, -0.049650599248707294 -4.00192528963089, -1.0592461377382278 l-3.779447376728058, -1.9226497411727905 -4.185248017311096, -0.6718290597200394 l-4.193976819515228, -0.6144706904888153 -4.056605696678162, -1.2136577814817429 m44.986023902893066, -8.21395218372345 l-3.037702441215515, 0.719301700592041 -2.781461477279663, 1.4216579496860504 l-3.259063959121704, 0.18327083438634872 -3.7749215960502625, -1.6078007221221924 m-0.17851496115326881, 0.0 l-2.83128023147583, 0.8913728594779968 -1.4618107676506042, 2.5166410207748413 l-2.6690328121185303, 3.198133707046509 m-24.09965753555298, -13.3872389793396 l2.860475480556488, 0.7124318927526474 1.9069132208824158, 2.5726813077926636 l2.106897532939911, 2.290823459625244 2.0515121519565582, 4.062543511390686 m0.7140638679265976, -0.8913708478212357 l-0.8925788104534149, -3.0464541912078857 -2.217932492494583, -2.207791805267334 l-2.7805155515670776, -3.3179205656051636 m25.170753002166748, 5.531504154205322 l-1.4281277358531952, -2.364259362220764 -2.3470538854599, -1.5594440698623657 l-3.0084270238876343, -0.8931808173656464 -4.819930195808411, -3.3887365460395813 m-0.7140638679265976, -3.215603232383728 l-2.5781112909317017, -1.5833933651447296 -3.3339178562164307, -0.02440931275486946 l-3.0562058091163635, 0.5767257511615753 -4.777495265007019, 2.6388776302337646 m24.456686973571777, 9.280266165733337 l3.1939220428466797, -0.4102044180035591 2.548268139362335, -1.9247497618198395 l2.8442639112472534, -1.5887491405010223 3.9096656441688538, -0.5414867401123047 m1.0710938274860382, 0.18327083438634872 l-2.800304889678955, 1.1647331714630127 -2.5072532892227173, 1.7936314642429352 l-2.939925193786621, 0.6071248650550842 -3.177538514137268, 2.857389450073242 m-5.712510943412781, -3.0323323607444763 l-3.356795310974121, 1.6707149147987366 -2.6904022693634033, 2.756774127483368 l-2.2216573357582092, -1.7171275615692139 0.5730718374252319, -3.8529792428016663 l-1.052696332335472, 0.8784811943769455 -3.334541916847229, 1.5027576684951782 l1.604020744562149, -2.582525312900543 2.8917425870895386, -2.607138454914093 l1.7775239050388336, 2.2538384795188904 -0.6758309155702591, 3.8387057185173035 l1.1020269244909286, -0.15027576126158237 2.6121842861175537, -2.7584820985794067 l2.7713537216186523, 1.3004133105278015 " fill="none" stroke="black" stroke-width="1" /></svg>