<?xml version="1.0" encoding="utf-8" ?>
<svg baseProfile="full" height="83.35210820659995" version="1.1" width="97.79545912519097" xmlns="http://www.w3.org/2000/svg" xmlns:ev="http://www.w3.org/2001/xml-events" xmlns:xlink="http://www.w3.org/1999/xlink"><defs /><rect fill="white" height="83.35210820659995" width="97.79545912519097" x="0" y="0" /><path d="M25.570898005717027, 25 m-0.13771173544228077, 3.2691463828086853 l-0.12526720762252808, 3.2456663250923157 -0.1534546073526144, 3.2484006881713867 l-0.128545006737113, 3.2465574145317078 -0.025589491706341505, 3.2469767332077026 l-0.0003299568561487831, 3.2601216435432434 0.10710729286074638, 3.2528087496757507 l0.2656496688723564, 3.216910660266876 2.2400063276290894, 1.6919848322868347 l3.1588318943977356, 0.45262619853019714 3.1710967421531677, 0.3625345230102539 l3.1640106439590454, 0.37782609462738037 3.1538519263267517, 0.3680451586842537 l3.1371092796325684, 0.3711622580885887 3.1456315517425537, 0.3850436583161354 l3.1385797262191772, 0.3829953819513321 3.117567002773285, 0.3767792135477066 l3.1155183911323547, 0.34057334065437317 3.1417539715766907, 0.3131728246808052 l3.1129977107048035, 0.26376841589808464 3.124917447566986, 0.19849345088005066 l3.0980589985847473, 0.10042349807918072 2.9519066214561462, -0.7319189608097076 l1.450863927602768, -2.625126540660858 -0.13069267384707928, -3.183203637599945 l-0.851968377828598, -3.0965393781661987 -1.8178148567676544, -2.6876863837242126 l-2.467987835407257, -1.973307579755783 -2.7779698371887207, -1.4364838600158691 l-2.9177361726760864, -1.102348417043686 -3.0245810747146606, -0.9027840197086334 l-3.0426934361457825, -0.7922717183828354 -2.9875418543815613, -0.7916443049907684 l-2.946651875972748, -0.911920964717865 -2.9366984963417053, -0.9877697378396988 l-2.9033970832824707, -1.0767332464456558 -2.835492193698883, -1.20083749294281 l-2.4886080622673035, -1.847129911184311 -2.0357391238212585, -2.333945333957672 l-1.6715438663959503, -2.6036396622657776 -2.63022780418396, -1.2735715508460999 l-3.0756181478500366, -0.0768479984253645 -3.716810643672943, 1.0409712046384811 m14.667701721191406, 22.012035846710205 l2.7222302556037903, 1.0727854818105698 2.7567049860954285, 1.0409149527549744 l2.798399329185486, 0.9460467845201492 2.805229127407074, 0.8717627078294754 l2.827603816986084, 0.7800207287073135 2.835839092731476, 0.7217554748058319 l2.8334328532218933, 0.6462766230106354 2.8266048431396484, 0.5519673973321915 l2.853311598300934, 0.4702339693903923 2.8609824180603027, 0.4139736667275429 l2.071513533592224, -1.3637816905975342 m-29.109742641448975, -16.28613591194153 l2.346331775188446, 1.6646625101566315 2.3478898406028748, 1.7549198865890503 l2.343478351831436, 1.7331765592098236 2.349754720926285, 1.6896533966064453 l2.39190012216568, 1.6495949029922485 2.258782237768173, 1.7208825051784515 l2.5459855794906616, 1.2408403307199478 2.580637037754059, 1.1140142381191254 l2.603621184825897, 1.039768010377884 2.6311859488487244, 0.9652410447597504 l2.6486071944236755, 0.8555924147367477 m-27.171192169189453, -14.30132269859314 l2.405417412519455, 1.4333043992519379 2.4182425439357758, 1.5205301344394684 l2.3977291584014893, 1.5323013067245483 2.371741384267807, 1.5663786232471466 l2.235864996910095, 1.6683682799339294 2.4406254291534424, 1.290995329618454 l2.534697949886322, 1.0874302685260773 2.53627747297287, 1.040581539273262 l2.558630406856537, 0.9462155401706696 2.600291073322296, 0.879373773932457 m-19.76140260696411, -13.102984428405762 l-2.126457542181015, 1.6780036687850952 -2.176293730735779, 1.840018779039383 l-2.203238010406494, 2.7481630444526672 -1.7020419239997864, 3.8004890084266663 l-1.0074611753225327, 4.590671360492706 m12.054182291030884, -13.397363424301147 l-1.7457452416419983, 2.6140883564949036 -1.7661400139331818, 2.6254746317863464 l-1.6594566404819489, 2.667897641658783 -1.4601680636405945, 4.982335865497589 l-0.4186244308948517, 4.95767742395401 m11.619282960891724, -16.87418818473816 l-1.5330341458320618, 2.517155408859253 -1.6121271252632141, 2.5607943534851074 l-1.5355922281742096, 2.6256713271141052 -1.011691838502884, 2.9359471797943115 l-0.3092687577009201, 5.177481770515442 m10.293023586273193, -14.354453086853027 l-1.1343321949243546, 2.8667113184928894 -1.2660370767116547, 2.8388062119483948 l-1.2414219230413437, 2.879929542541504 -0.9817332029342651, 5.157427787780762 " fill="none" stroke="black" stroke-width="1" /></svg>