<?xml version="1.0" encoding="utf-8" ?>
<svg baseProfile="full" height="122.13345089461654" version="1.1" width="1030.327971946681" xmlns="http://www.w3.org/2000/svg" xmlns:ev="http://www.w3.org/2001/xml-events" xmlns:xlink="http://www.w3.org/1999/xlink"><defs /><rect fill="white" height="122.13345089461654" width="1030.327971946681" x="0" y="0" /><path d="M25, 25 m0.0, 0.0 m26.96738209342584, 39.839360625483096 l2.9259082674980164, 1.409192532300949 2.870432436466217, 1.598285287618637 l2.8781473636627197, 1.623179018497467 2.908407747745514, 1.6050699353218079 l2.9039454460144043, 1.5507158637046814 2.965683937072754, 1.4752943813800812 l2.9738810658454895, 1.3734342157840729 3.032205104827881, 1.2991467118263245 l3.0419528484344482, 1.1831824481487274 3.0607903003692627, 1.084705963730812 l3.099850118160248, 0.9460046887397766 3.0976200103759766, 0.864252895116806 l3.1286096572875977, 0.7630326598882675 3.1256860494613647, 0.6558395177125931 l3.093407452106476, 0.5599365755915642 3.1086787581443787, 0.507846474647522 l3.087916076183319, 0.4581955820322037 1.816716194152832, 1.9729670882225037 l0.05719532258808613, 3.0436700582504272 -2.297326922416687, 1.8717250227928162 l-3.076254725456238, 0.825423002243042 -3.147536516189575, 0.3787330165505409 l-3.1533080339431763, 0.1187624130398035 -3.1197509169578552, -0.08911156095564365 l-3.1375545263290405, -0.21963300183415413 -3.134598433971405, -0.3467796742916107 l-3.134514093399048, -0.3724479302763939 -3.160834014415741, -0.41102465242147446 l-3.13395231962204, -0.4473232850432396 -3.1048890948295593, -0.4772457852959633 l-3.090156614780426, -0.5270426720380783 -3.0642089247703552, -0.5922712758183479 l-3.058677613735199, -0.6714869290590286 -3.0286842584609985, -0.7785975933074951 l-2.981674373149872, -0.9323927760124207 -2.5995999574661255, -1.710037738084793 l-1.1688126623630524, -2.7998340129852295 -0.46372491866350174, -3.0632683634757996 l-0.0703748082742095, -3.1178653240203857 0.2308979444205761, -3.093496859073639 l0.47091390937566757, -2.9737868905067444 0.6394797563552856, -3.0041885375976562 l1.6478312015533447, -2.431378662586212 m20.33125638961792, 16.858586072921753 l0.48999812453985214, -3.0045029520988464 0.8421917259693146, -3.029230833053589 l1.0368239879608154, -2.9559677839279175 1.9122061133384705, -2.4063099920749664 l2.6178625226020813, -1.539028286933899 2.97062486410141, 0.41399918496608734 l1.408383697271347, 2.4011515080928802 0.27601007372140884, 2.8207847476005554 l-0.42303018271923065, 2.768986225128174 -2.0799580216407776, 1.8361027538776398 l-2.8644654154777527, 0.9867893904447556 -3.010011613368988, 0.6920988112688065 l-2.9775604605674744, 0.5364370346069336 -3.0571484565734863, 0.4280818998813629 l-3.042270839214325, 0.23516995832324028 -3.004795014858246, 0.061667999252676964 l-2.9285255074501038, -0.1262976974248886 -2.9127544164657593, -0.3533216565847397 l-2.8675132989883423, -0.5345575511455536 -2.576255202293396, -1.240437924861908 l-2.094660699367523, -1.8726487457752228 -1.4339932799339294, -2.3044343292713165 l-0.7492032647132874, -2.559797167778015 -0.1629168726503849, -2.5674793124198914 l0.31187936663627625, -2.591952085494995 0.7011692225933075, -2.4914202094078064 l1.6612142324447632, -1.8959376215934753 2.462020367383957, -1.056089997291565 l2.825135886669159, -0.49837931990623474 2.917386293411255, -0.1503754872828722 l2.857477366924286, 0.11304698884487152 2.8431329131126404, 0.32760247588157654 l2.817446291446686, 0.49452293664216995 2.7439481019973755, 0.633992925286293 l2.711217701435089, 0.7861020416021347 2.652864456176758, 0.9647297859191895 l2.5731363892555237, 1.136154681444168 2.510068714618683, 1.2533961236476898 l2.4224120378494263, 1.377050131559372 2.3472760617733, 1.4736807346343994 l1.9965316355228424, 1.7552962899208069 1.594897210597992, 2.039240747690201 l1.364840567111969, 2.201415002346039 1.1503001302480698, 2.2767119109630585 l0.9484771639108658, 2.326032668352127 m-27.324464321136475, -9.532460570335388 l0.5944276228547096, -2.5831839442253113 1.7856867611408234, -1.872270554304123 l2.58542001247406, -1.0178779065608978 4.01460200548172, 0.05676154512912035 l3.3536532521247864, 1.0661772638559341 2.7048438787460327, 1.8593768775463104 l1.266019493341446, 2.356487065553665 -1.7570851743221283, 2.393125891685486 l-2.9635468125343323, 1.0811693221330643 -3.130694329738617, 0.48838865011930466 l-3.1659793853759766, 0.29824577271938324 -3.1574904918670654, 0.19333597272634506 l-3.182119131088257, 0.05320144351571798 -3.1930962204933167, -0.042441836558282375 m87.95324703445658, -13.958382391720079 l2.885602116584778, 1.338823139667511 2.7864444255828857, 1.5362870693206787 l2.7691975235939026, 1.564803421497345 2.7725622057914734, 1.533791422843933 l2.8113672137260437, 1.4627321064472198 2.8472483158111572, 1.3982009887695312 l2.8688400983810425, 1.3217857480049133 2.877325713634491, 1.2518543004989624 l2.900508940219879, 1.1495394259691238 2.9023024439811707, 1.0431009531021118 l2.945529520511627, 0.9523181617259979 2.957277297973633, 0.8682549744844437 l2.981348931789398, 0.7829613238573074 2.9820170998573303, 0.7186229526996613 l2.9800230264663696, 0.6315625458955765 2.954067885875702, 0.5940468609333038 l2.9281488060951233, 0.5347324907779694 2.8891870379447937, 0.545334592461586 l1.362261027097702, 2.148766368627548 -0.41170764714479446, 2.9134470224380493 l-2.3518234491348267, 1.72340527176857 -2.935510277748108, 0.7778254896402359 l-3.003859221935272, 0.43876681476831436 -3.0080270767211914, 0.20219486206769943 l-3.013538420200348, 0.007070218562148511 -3.0319327116012573, -0.14693503268063068 l-2.987770736217499, -0.21598879247903824 -3.0288439989089966, -0.3097943216562271 l-3.036305606365204, -0.37915922701358795 -2.992963492870331, -0.388190895318985 l-2.9699036478996277, -0.4459577053785324 -2.974081039428711, -0.485939159989357 l-2.9656982421875, -0.5303599312901497 -2.933056652545929, -0.5651991814374924 l-2.9541775584220886, -0.6228607147932053 -2.916734218597412, -0.7305003702640533 l-2.874287962913513, -0.8922640979290009 -2.4456660449504852, -1.6451607644557953 l-0.9396788477897644, -2.742307484149933 -0.26306135579943657, -3.014955520629883 l0.12884986586868763, -2.979799509048462 0.39915673434734344, -2.980351448059082 l0.6196948885917664, -2.991337478160858 0.7506074756383896, -2.874649167060852 l0.8380778878927231, -2.9004675149917603 m-0.5829622969031334, 7.690907120704651 l2.5779300928115845, 1.3339045643806458 2.8424620628356934, 0.9367991238832474 l2.8931495547294617, 0.7773394137620926 2.9058510065078735, 0.6485118716955185 l2.938741445541382, 0.5588237196207047 2.9418453574180603, 0.5149881914258003 l2.937360107898712, 0.49462176859378815 2.9453206062316895, 0.4984494298696518 l2.9654935002326965, 0.5014612898230553 2.9492267966270447, 0.49525968730449677 l2.9534265398979187, 0.4946056380867958 2.9385030269622803, 0.4745498299598694 l2.9581421613693237, 0.47641586512327194 2.9626163840293884, 0.4571988061070442 l2.924399971961975, 0.430356040596962 2.9154300689697266, 0.4567880183458328 m-28.359532356262207, -5.414623022079468 l-2.4748408794403076, 1.2746872007846832 -2.3940981924533844, 1.370840072631836 l-2.387421727180481, 1.401534527540207 -2.315153181552887, 1.370892971754074 l-2.9535576701164246, 2.494746595621109 -2.680586576461792, 3.595598042011261 m15.881519317626953, -12.12148666381836 l-2.1829919517040253, 2.019033581018448 -2.2289124131202698, 2.0415951311588287 l-2.1887804567813873, 2.0144207775592804 -3.1456735730171204, 3.5044249892234802 l-2.9939717054367065, 3.466237485408783 m14.126027822494507, -12.754838466644287 l-1.8967273831367493, 2.3268570005893707 -1.9664424657821655, 2.2913002967834473 l-1.9287271797657013, 2.283879369497299 -2.6363205909729004, 3.781825006008148 l-2.7697768807411194, 3.808698058128357 m13.572983741760254, -13.849077224731445 l-1.6361521184444427, 2.5736013054847717 -1.6987629234790802, 2.545844614505768 l-1.6778473556041718, 2.5819185376167297 -2.1827392280101776, 3.9859306812286377 l-2.2168467938899994, 4.029970169067383 m12.155927419662476, -15.485987663269043 l-1.122012734413147, 2.840985655784607 -1.3585005700588226, 2.815386652946472 l-1.3350377976894379, 2.820017635822296 -1.6278447210788727, 4.631079733371735 l-1.5205764770507812, 4.312044680118561 m10.511189699172974, -17.323644161224365 l-0.8256185799837112, 2.9554924368858337 -1.0035224258899689, 2.949511706829071 l-0.9877609461545944, 2.9833972454071045 -0.9484525769948959, 2.9547688364982605 l-1.0938911139965057, 4.747258424758911 m8.723059892654419, -15.374225378036499 l-0.6134111061692238, 3.013288974761963 -0.771184042096138, 3.0283424258232117 l-0.7774554938077927, 3.0047091841697693 -0.82809679210186, 4.793176054954529 l-1.0488982498645782, 4.333037734031677 m7.106400728225708, -17.4031400680542 l-0.3344989940524101, 2.996535003185272 -0.46245310455560684, 3.030175268650055 l-0.5108886584639549, 3.001422882080078 -0.00036299286875873804, 3.307797908782959 l0.03803088562563062, 4.491021037101746 m64.45061210368294, -30.06245378172025 l2.8371065855026245, 1.6372676193714142 2.7339696884155273, 1.7873062193393707 l2.6981788873672485, 1.7609122395515442 2.7113988995552063, 1.7119841277599335 l2.9142937064170837, 1.278611272573471 2.9581642150878906, 1.1496521532535553 l2.9695630073547363, 1.036844551563263 2.9935750365257263, 0.9469100087881088 l3.0074700713157654, 0.8853571116924286 3.0315330624580383, 0.7910162210464478 l3.061490058898926, 0.6970373541116714 3.0404946208000183, 0.6171685084700584 l3.0664482712745667, 0.5530837923288345 3.0425339937210083, 0.48116814345121384 l3.0152738094329834, 0.4296441376209259 3.0042478442192078, 0.36261774599552155 l2.961808443069458, 0.35542603582143784 1.657051146030426, 1.9607414305210114 l-0.2127630077302456, 3.0383381247520447 -2.3095503449440002, 1.801195740699768 l-2.9580333828926086, 0.7683214545249939 -3.001064956188202, 0.42147040367126465 l-3.067960739135742, 0.19949814304709435 -3.067311942577362, 0.033122783061116934 l-3.0475103855133057, -0.12587027624249458 -3.03011417388916, -0.21972093731164932 l-3.024679720401764, -0.3208322823047638 -3.019745647907257, -0.36247052252292633 l-2.9982173442840576, -0.3948916867375374 -2.9877689480781555, -0.44477444142103195 l-2.9935291409492493, -0.4724079370498657 -2.9832670092582703, -0.5493955314159393 l-2.9812657833099365, -0.624546967446804 -2.9416701197624207, -0.6625104695558548 l-2.895294427871704, -0.7717837393283844 -2.888197600841522, -1.0068025439977646 l-1.4251086115837097, -2.491358071565628 0.15550569631159306, -3.0786415934562683 l0.47688882797956467, -3.0839356780052185 0.64425028860569, -3.0492880940437317 l0.692896693944931, -3.005811870098114 0.6985311955213547, -2.961927056312561 m-0.8138962835073471, 9.159943461418152 l0.5059222877025604, 2.9614660143852234 0.5680746957659721, 2.9268741607666016 l2.1673256158828735, 1.8223349750041962 2.8640973567962646, 0.9149301052093506 l2.8959015011787415, 0.8157216757535934 2.9021477699279785, 0.7701292634010315 l2.9162612557411194, 0.7779482007026672 2.88480281829834, 0.7380997389554977 l2.896476984024048, 0.7168806344270706 2.905557155609131, 0.6833969056606293 l2.8893372416496277, 0.632118359208107 2.899264395236969, 0.5854522436857224 l2.928280830383301, 0.5201433971524239 2.9095306992530823, 0.43270643800497055 l2.922433912754059, 0.35436999052762985 2.927059829235077, 0.2604418620467186 l2.8547394275665283, -0.436687134206295 1.9348978996276855, -2.019891142845154 l0.6810791045427322, -2.934398651123047 m-27.820522785186768, -16.911680698394775 l-2.189406305551529, 1.76913782954216 -2.1113458275794983, 1.9149406254291534 l-2.000708729028702, 2.0607049763202667 -2.401696592569351, 2.897683084011078 l-1.8892298638820648, 3.604390323162079 -1.3567622005939484, 3.906369209289551 m13.772433996200562, -15.11492371559143 l-1.9490201771259308, 2.3965203762054443 -2.0104986429214478, 2.3589174449443817 l-1.9927754998207092, 2.3436304926872253 -1.9483612477779388, 2.305365949869156 l-2.407289147377014, 4.233275651931763 -2.3066507279872894, 4.111286401748657 m14.807391166687012, -16.955089569091797 l-1.6862040758132935, 2.3636531829833984 -1.792350709438324, 2.362121194601059 l-1.748727709054947, 2.3465658724308014 -1.7225819826126099, 2.3346886038780212 l-2.417334020137787, 4.051170349121094 -2.1988345682621, 4.205292463302612 m14.18608546257019, -16.82504415512085 l-1.6527007520198822, 2.3229825496673584 -1.8381333351135254, 2.3630018532276154 l-1.7588721215724945, 2.346136122941971 -1.7351296544075012, 2.341325581073761 l-2.170230895280838, 4.291212558746338 -2.1764524281024933, 4.29381787776947 m13.155403137207031, -16.764416694641113 l-1.0711238533258438, 2.7235063910484314 -1.2596490979194641, 2.70400732755661 l-1.2441656738519669, 2.7233028411865234 -1.2423540651798248, 2.7328193187713623 l-1.582091748714447, 4.446781873703003 -1.6702823340892792, 4.163225889205933 m9.623768925666809, -18.654052019119263 l-0.7225002348423004, 2.882031500339508 -0.90629942715168, 2.869815230369568 l-0.9022558480501175, 2.868092656135559 -0.8491554856300354, 2.882658541202545 l-1.202918216586113, 4.502129256725311 -1.5031935274600983, 4.375954568386078 m76.67695897107478, -29.561446589650586 l-0.062474776059389114, 3.3460235595703125 -0.05233726464211941, 3.34672749042511 l-0.032040535006672144, 3.310058116912842 -0.005482059204950929, 3.2998058199882507 l0.006712930626235902, 3.307717442512512 0.08480568416416645, 3.3080366253852844 l0.1486106589436531, 3.2922357320785522 0.2719792537391186, 3.2685822248458862 l2.2725260257720947, 1.7265385389328003 3.25274795293808, 0.43347347527742386 l3.2592615485191345, 0.36420203745365143 3.260520100593567, 0.3450470417737961 l3.268156349658966, 0.36991000175476074 3.244253695011139, 0.3643031045794487 l3.246101140975952, 0.3828170895576477 3.233114182949066, 0.36652322858572006 l3.2249492406845093, 0.3199886158108711 3.247152864933014, 0.27925657108426094 l3.212355673313141, 0.22493023425340652 3.2042554020881653, 0.1539409812539816 l3.2064899802207947, 0.11992122046649456 3.2312116026878357, 0.01679064822383225 l2.196964770555496, -1.7544551193714142 0.4023018479347229, -3.1770911812782288 l-0.3520576283335686, -3.161303997039795 -0.8597211539745331, -3.100019693374634 l-1.7741481959819794, -2.671489119529724 -2.4960672855377197, -2.0382726192474365 l-2.859174907207489, -1.523919701576233 -2.99328476190567, -1.1465733498334885 l-3.0437585711479187, -0.9469836950302124 -3.07526171207428, -0.8349312841892242 l-3.0898162722587585, -0.8211708068847656 -3.0740824341773987, -0.8268262445926666 l-3.0359113216400146, -0.8780154585838318 -3.013961911201477, -0.9958942979574203 l-2.9449039697647095, -1.1028040200471878 -2.8302666544914246, -1.2416136264801025 l-2.8218641877174377, -1.403132677078247 -2.785382866859436, -1.4674274623394012 l-2.84182071685791, -1.4059434831142426 -3.6613744497299194, -0.41126158088445663 m17.061625719070435, 21.813158988952637 l2.6757046580314636, 1.2361562252044678 2.852697968482971, 0.8640658855438232 l2.8972509503364563, 0.7360218465328217 2.9548338055610657, 0.36632414907217026 l2.962545156478882, 0.3652689978480339 2.939125895500183, 0.3645019978284836 l2.9197263717651367, 0.37553612142801285 2.945476472377777, 0.32143160700798035 l4.122312963008881, -0.6714902073144913 2.0248891413211823, -1.9850829243659973 m-31.44850254058838, -12.635141611099243 l-2.1517813205718994, 1.6636808216571808 -2.6069173216819763, 1.3586187362670898 l-3.406696617603302, 2.074553072452545 -3.0417844653129578, 1.9886928796768188 l-3.660832643508911, 2.852928042411804 -3.2803958654403687, 3.545237183570862 m18.931279182434082, -14.24040675163269 l-2.352074384689331, 2.2983868420124054 -2.4235886335372925, 2.3093830049037933 l-2.3632843792438507, 2.2533275187015533 -2.408936321735382, 2.1032950282096863 l-3.781687319278717, 3.009924292564392 -4.268339574337006, 3.133305013179779 m16.976255178451538, -13.93959641456604 l-2.119026631116867, 2.389676719903946 -2.215922027826309, 2.3630276322364807 l-2.1931543946266174, 2.335297167301178 -2.2134092450141907, 2.2655832767486572 l-3.6736124753952026, 3.575601577758789 m13.491716384887695, -11.623965501785278 l-1.8278694152832031, 2.538825571537018 -1.9913779199123383, 2.5191962718963623 l-1.9942454993724823, 2.4835458397865295 -3.0567067861557007, 3.8085857033729553 l-3.3386999368667603, 3.5687968134880066 m14.31808352470398, -13.938736915588379 l-1.7521750926971436, 2.701749801635742 -1.9041064381599426, 2.678803503513336 l-1.9256824254989624, 2.6414385437965393 -1.9476862251758575, 2.6359587907791138 l-2.919189929962158, 4.049265384674072 m12.936689853668213, -14.150078296661377 l-1.597762256860733, 2.700854539871216 -1.7683452367782593, 2.7257508039474487 l-1.7698007822036743, 2.6761195063591003 -1.81851327419281, 2.656508982181549 l-2.7220940589904785, 3.921017050743103 m12.270125150680542, -14.534728527069092 l-1.5975458920001984, 2.7046284079551697 -1.7101940512657166, 2.691631019115448 l-1.6198727488517761, 2.6975321769714355 -1.60995751619339, 2.690626382827759 l-2.2600282728672028, 4.315139651298523 m11.833727359771729, -14.657113552093506 l-1.2616491317749023, 3.0301597714424133 -1.4395876228809357, 3.012544810771942 l-1.427161991596222, 3.022196590900421 -1.4728640019893646, 3.0284231901168823 l-1.9617250561714172, 4.620251953601837 m10.996336936950684, -16.123714447021484 l-1.0739248991012573, 3.1286999583244324 -1.2882265448570251, 3.0800503492355347 l-1.32931649684906, 3.0795982480049133 -1.3162948191165924, 3.09954434633255 l-1.6730780899524689, 4.639341235160828 m80.27666095644236, -14.953832100145519 l2.9612845182418823, 1.3804642856121063 3.09467613697052, 0.8942127972841263 l3.0794408917427063, 0.8519211411476135 3.093896508216858, 0.8486778289079666 l3.114989697933197, 0.7839753478765488 3.0941569805145264, 0.7603723555803299 l3.125225305557251, 0.7252777367830276 3.1347087025642395, 0.6523760408163071 l3.137945234775543, 0.6097287312150002 3.141564726829529, 0.5586323887109756 l3.1447455286979675, 0.5261233076453209 3.130636513233185, 0.45234788209199905 l3.161594867706299, 0.3869584947824478 3.1193119287490845, 0.3233862668275833 l3.116319477558136, 0.23846404626965523 2.1194222569465637, -1.5463094413280487 l0.42423591017723083, -3.0232420563697815 -0.5291487649083138, -3.0465328693389893 l-1.106158196926117, -2.9183483123779297 -1.5186913311481476, -2.745251953601837 l-2.2071613371372223, -2.177731841802597 -2.6170438528060913, -1.6063226759433746 l-2.8575223684310913, -1.2632270157337189 -2.948918044567108, -1.0050808638334274 l-3.034661114215851, -0.863603875041008 -3.008454144001007, -0.7444187253713608 l-3.0969545245170593, -0.7018172740936279 -3.059830367565155, -0.6649575382471085 l-2.991856336593628, -0.6601410359144211 -3.0095088481903076, -0.6445353478193283 l-3.0247315764427185, -0.6157229840755463 -2.984401285648346, -0.5956428498029709 l-3.0001839995384216, -0.5490295961499214 -3.0355390906333923, -0.4750720411539078 l-2.2846558690071106, 1.5948086977005005 -0.9215481579303741, 3.0941516160964966 l-0.3849326819181442, 3.2635900378227234 -0.18468236550688744, 3.27193021774292 l-0.037960661575198174, 3.272971212863922 0.0902289804071188, 3.249770998954773 l0.20120156928896904, 3.259004056453705 m24.042222499847412, -4.419871270656586 l0.3729427605867386, -3.1015226244926453 1.4017146825790405, -2.734537422657013 l2.218039780855179, -2.0150917768478394 2.793586850166321, -1.001340001821518 l1.5628375113010406, 2.083994448184967 0.06801905110478401, 3.028164505958557 l-0.1507863961160183, 2.9909110069274902 -1.2257158011198044, 3.1596171855926514 l-2.2754238545894623, 1.8744076788425446 -2.879907190799713, 0.8349817246198654 l-2.997545301914215, 0.40266331285238266 -2.9419824481010437, 0.21518435329198837 l-2.9505860805511475, -0.01960708759725094 -2.9570624232292175, -0.24049459025263786 l-2.874263823032379, -0.38264352828264236 -2.835721969604492, -0.5721627548336983 l-2.78113454580307, -0.6828045845031738 -2.7831804752349854, -0.7704056799411774 l-2.7466294169425964, -0.8580132573843002 -2.6537176966667175, -0.9758135676383972 l-2.2031380236148834, -1.6270634531974792 -1.5140509605407715, -2.25582554936409 l-0.7876197248697281, -2.6141005754470825 -0.17930720001459122, -2.73980975151062 l0.3373917192220688, -2.7068769931793213 0.7075066864490509, -2.619299292564392 l1.6331231594085693, -2.006753832101822 2.3992934823036194, -1.1910653114318848 l2.750219404697418, -0.6234049797058105 2.803354263305664, -0.20966120064258575 l2.8096336126327515, 0.05935580935329199 2.7906572818756104, 0.23772014304995537 l2.7842235565185547, 0.40007658302783966 2.752886712551117, 0.4924401268362999 l2.7241751551628113, 0.6113386899232864 2.7147328853607178, 0.7054466754198074 l2.6865309476852417, 0.813678503036499 2.6492252945899963, 0.9404957294464111 l2.624918520450592, 1.0326862335205078 2.561035454273224, 1.1441129446029663 l2.5010794401168823, 1.243310570716858 2.4661000072956085, 1.3301891088485718 l2.182754725217819, 1.6697132587432861 1.8093499541282654, 2.0223981142044067 l1.3288301229476929, 2.3007912933826447 m-25.100176334381104, -4.362947344779968 l-2.1454183757305145, 1.24319888651371 -2.7619975805282593, 1.77196204662323 l-2.635847330093384, 2.3174327611923218 -2.5285035371780396, 3.3789679408073425 l-1.489536315202713, 4.223663806915283 m12.775766849517822, -13.41464638710022 l-1.9471928477287292, 2.32857346534729 -1.9455313682556152, 2.4046683311462402 l-2.0664940774440765, 4.056337475776672 -1.1956372112035751, 4.410129487514496 m10.396522283554077, -12.605417966842651 l-1.487218290567398, 2.8772249817848206 -1.523480862379074, 2.8654465079307556 l-1.4839395880699158, 4.909518659114838 -0.4046471416950226, 4.848731160163879 m79.03569375688676, -29.180036166217178 l-0.24703748524188995, 3.371751606464386 -0.14675023965537548, 3.2995525002479553 l-0.08699201978743076, 3.284093737602234 -0.015911004738882184, 3.2853445410728455 l0.057856631465256214, 3.275616765022278 0.13405912555754185, 3.253277540206909 l0.20352834835648537, 3.225974142551422 0.3213730454444885, 3.1938326358795166 l0.4425753653049469, 3.1650790572166443 2.498815655708313, 1.567309945821762 l3.2384374737739563, 0.43943576514720917 3.231329619884491, 0.330670066177845 l3.2154712080955505, 0.3104276582598686 3.219369947910309, 0.31365975737571716 l3.213476240634918, 0.33092059195041656 3.2152095437049866, 0.3341834247112274 l3.212158679962158, 0.3130841627717018 3.2096365094184875, 0.3148253634572029 l3.178553879261017, 0.29970260336995125 3.2038316130638123, 0.24166196584701538 l3.2190582156181335, 0.160149447619915 3.1594935059547424, 0.08370311930775642 l2.9971781373023987, -0.8007603883743286 1.59273162484169, -2.652274966239929 l0.0016872776905074716, -3.2354727387428284 -0.6925204396247864, -3.200024962425232 l-1.1054114252328873, -2.9986411333084106 -1.941089928150177, -2.5877544283866882 l-2.520151138305664, -1.9306167960166931 -2.847065031528473, -1.441580206155777 l-2.9682523012161255, -1.152004897594452 -3.025984466075897, -0.948047861456871 l-3.0664807558059692, -0.9016013890504837 -3.0495816469192505, -0.9216655045747757 l-3.034341335296631, -0.9445498883724213 -3.029390871524811, -1.0329650342464447 l-2.9375234246253967, -1.1814485490322113 -2.5665321946144104, -1.8277807533740997 l-2.0859992504119873, -2.3800501227378845 -1.6799275577068329, -2.6850146055221558 l-2.6121455430984497, -1.3673551380634308 -3.127398192882538, -0.033893503714352846 l-3.121025264263153, 0.3565946966409683 -3.0358120799064636, 0.46318311244249344 m17.114404439926147, 24.93980884552002 l2.708579897880554, 1.2865018844604492 2.759004235267639, 1.1886253952980042 l2.790672779083252, 1.0037006437778473 2.8256037831306458, 0.9318520128726959 l2.83183217048645, 0.8414725214242935 2.8144454956054688, 0.7301859557628632 l2.836255431175232, 0.6476083397865295 2.830260694026947, 0.545380674302578 l2.857442796230316, 0.15752287581562996 2.3110581934452057, -1.390223503112793 l1.1178059130907059, -2.7660924196243286 m-31.04262113571167, -16.14071249961853 l0.3765234351158142, 3.1555581092834473 0.4185374453663826, 3.200709819793701 l0.471244677901268, 3.138914406299591 0.563407763838768, 3.119562566280365 l0.659828707575798, 3.090549111366272 1.2678423523902893, 2.807108461856842 l2.5746971368789673, 1.4292164146900177 2.944909632205963, 0.6256277859210968 l2.9506200551986694, 0.5123048275709152 2.9445871710777283, 0.4768119379878044 l2.9583680629730225, 0.42843047529459 2.9634609818458557, 0.4095004126429558 l2.96139657497406, 0.3690692409873009 2.9760438203811646, 0.31791020184755325 l2.9890230298042297, 0.23026874288916588 2.8789809346199036, -0.5328387394547462 l1.7556552588939667, -2.2801001369953156 0.3412238880991936, -3.1484225392341614 m-30.069093704223633, -17.256338596343994 l-2.1496112644672394, 1.772601306438446 -1.494947373867035, 2.522280216217041 l-1.227506771683693, 3.849213719367981 -0.3584333509206772, 4.595861434936523 l0.23457758128643036, 4.732480049133301 m7.592366337776184, -18.37597966194153 l-1.6670511662960052, 2.619161307811737 -1.743839681148529, 2.672397494316101 l-1.6395801305770874, 2.7470043301582336 -1.5106947720050812, 2.787926495075226 l-1.4124764502048492, 4.4595542550086975 m11.509641408920288, -13.95486831665039 l-1.5386223793029785, 2.5658491253852844 -1.6382095217704773, 2.588597536087036 l-1.580057144165039, 2.6372602581977844 -1.7208346724510193, 4.698306918144226 l-1.2691491842269897, 4.753833711147308 m11.175938844680786, -16.344324350357056 l-1.0909335315227509, 2.924446165561676 -1.2311243265867233, 2.9146194458007812 l-1.2250388413667679, 2.940472662448883 -1.1733375489711761, 2.9328173398971558 l-1.2917324900627136, 4.6657103300094604 m8.930537700653076, -15.963773727416992 l-0.9324688464403152, 2.998628318309784 -1.1330383270978928, 3.0336731672286987 l-1.1426124721765518, 3.0370280146598816 -1.07559435069561, 3.0808299779891968 l-1.3140429556369781, 4.632786214351654 m76.21290060458705, -31.46520892623812 l-0.1803433708846569, 3.3410170674324036 -0.18131762742996216, 3.3210116624832153 l-0.17002945765852928, 3.3243122696876526 -0.08960011415183544, 3.3186641335487366 l-0.014257354196161032, 3.297334611415863 0.08852478116750717, 3.3016780018806458 l0.21361123770475388, 3.286895751953125 0.3610658273100853, 3.2702630758285522 l2.2711478173732758, 1.7725223302841187 3.189135193824768, 0.5232272297143936 l3.2190337777137756, 0.3993675112724304 3.195571005344391, 0.38128916174173355 l3.194192349910736, 0.3612096607685089 3.2035470008850098, 0.3797236457467079 l3.1872791051864624, 0.3897209092974663 3.1840571761131287, 0.3689110279083252 l3.2024207711219788, 0.32745812088251114 3.190430998802185, 0.2949228510260582 l3.1615057587623596, 0.2564719691872597 3.187173902988434, 0.20097807049751282 l3.1725499033927917, 0.13319551013410091 2.9815450310707092, -0.7294127345085144 l1.6515788435935974, -2.556198835372925 0.07381321862339973, -3.2500016689300537 l-0.6260278075933456, -3.213852345943451 -1.0915052145719528, -3.031090795993805 l-2.085486501455307, -2.2648057341575623 -2.6316633820533752, -1.6487321257591248 l-2.8762277960777283, -1.2395262718200684 -2.9622408747673035, -0.9692186117172241 l-3.01483690738678, -0.8322219550609589 -3.048093020915985, -0.7649748772382736 l-2.9866966605186462, -0.7634265720844269 -3.0077531933784485, -0.8494826406240463 l-2.933552861213684, -0.9962163865566254 -2.878021001815796, -1.1580683290958405 l-2.5108912587165833, -1.7722442746162415 -1.574583649635315, -2.69325852394104 l-1.0613901913166046, -2.947002351284027 -2.4266961216926575, -1.2885682284832 l-3.074239492416382, 0.08131460286676884 -3.1028547883033752, 0.25517648085951805 l-2.493266314268112, 1.2641534209251404 m16.535537242889404, 23.847033977508545 l2.716931998729706, 1.132890209555626 2.7500444650650024, 1.0286994278430939 l2.7734050154685974, 0.9567086398601532 2.800832688808441, 0.8674867451190948 l2.7931299805641174, 0.778435617685318 2.813199460506439, 0.6991562247276306 l2.8220340609550476, 0.5906186625361443 2.812741696834564, 0.5084147304296494 l2.8210046887397766, 0.4399770498275757 2.8075170516967773, 0.3683134913444519 l2.0708343386650085, -1.4896014332771301 m-30.847854614257812, -18.205687999725342 l0.07559942081570625, 3.1953224539756775 0.06563089322298765, 3.2080480456352234 l0.16416236758232117, 3.182755708694458 0.25922002270817757, 3.1616175174713135 l0.3756767511367798, 4.1671523451805115 0.27926791459321976, 4.164473116397858 l-0.12710988521575928, 3.382408618927002 m3.716650903224945, -25.280368328094482 l0.11683284305036068, 3.1603771448135376 0.024128041695803404, 3.192221522331238 l0.026308046653866768, 3.1300830841064453 -0.00017176758774439804, 3.1490132212638855 l-0.000346732085745316, 3.2774144411087036 -0.10227702558040619, 4.2392697930336 l-0.7737861573696136, 4.008195102214813 m3.171960711479187, -23.861193656921387 l0.3122146800160408, 3.074263632297516 0.23802140727639198, 3.1374570727348328 l0.1994030363857746, 3.1064632534980774 0.16126956790685654, 3.097335994243622 l-0.00020520315956673585, 3.1858357787132263 -0.24429548531770706, 4.334720075130463 m1.2097372859716415, -18.133370876312256 l0.09552891366183758, 3.082236647605896 0.024536815471947193, 3.169640302658081 l0.012747460277751088, 3.128799796104431 -0.00027214995498070493, 3.260680139064789 l-0.0003233387542422861, 3.3600816130638123 m1.2506912648677826, -14.102269411087036 l-0.019721295684576035, 3.1064024567604065 -0.4564781114459038, 3.066423535346985 l-0.5225235596299171, 3.112713098526001 -0.0005919062459724955, 3.420267701148987 l-0.11858540587127209, 4.342847466468811 m2.972061038017273, -15.332163572311401 l0.0005564057937590405, 3.0710500478744507 -0.09030085057020187, 3.113911747932434 l-0.12003317475318909, 3.1107360124588013 -0.00040479480958310887, 3.33816796541214 l-0.23506786674261093, 4.048824310302734 m2.1132157742977142, -15.461442470550537 l0.0726958829909563, 3.0467385053634644 -0.00020586876416928135, 3.3751338720321655 l-0.00021698768250644207, 3.567480146884918 -0.0003428011041251011, 3.509155511856079 m0.33759623765945435, -13.882255554199219 l0.23308362811803818, 3.068796992301941 -0.29365014284849167, 3.1877243518829346 l-0.0003406445830478333, 3.580634593963623 -0.00028913584174006246, 3.665260076522827 m0.22557726129889488, -13.102495670318604 l0.19649688154459, 3.0725473165512085 -0.0003166306851198897, 3.4866690635681152 l-0.00017122916688094847, 3.782096207141876 -0.10764413513243198, 4.770620167255402 m68.59288007157375, -18.300308235920966 l3.0357059836387634, 1.2034434080123901 2.936038374900818, 1.3701090216636658 l2.947956919670105, 1.3585413992404938 2.963000535964966, 1.308663934469223 l2.9861733317375183, 1.2640377879142761 2.9920893907546997, 1.1980684101581573 l3.0270493030548096, 1.1251283437013626 3.031015992164612, 1.032271757721901 l3.0865776538848877, 0.9295530617237091 3.0804944038391113, 0.8544619381427765 l3.11913400888443, 0.7585427165031433 3.12328040599823, 0.6368105858564377 l3.146566152572632, 0.5294905602931976 3.139265775680542, 0.45621640980243683 l3.14270943403244, 0.3733339160680771 3.0885866284370422, 0.2879135310649872 l3.0626606941223145, 0.2449432574212551 1.8890464305877686, -1.672096848487854 l-0.05812495946884155, -3.0898013710975647 -0.8037006855010986, -3.046068549156189 l-1.2484751641750336, -2.923536002635956 -1.6025525331497192, -2.6857560873031616 l-1.8707507848739624, -2.507718503475189 -2.370598614215851, -2.017717957496643 l-2.6975807547569275, -1.5898416936397552 -2.8110328316688538, -1.2274017930030823 l-2.944675385951996, -1.0546904057264328 -2.953450381755829, -0.8897308260202408 l-3.0184850096702576, -0.8242756873369217 -3.0026721954345703, -0.7469160109758377 l-2.9964569211006165, -0.7460455596446991 -2.992454469203949, -0.7252630591392517 l-3.039102852344513, -0.6996428966522217 -3.026263117790222, -0.6340332329273224 l-3.038823902606964, -0.5702278763055801 -3.0823037028312683, -0.47389406710863113 l-3.1175026297569275, -0.35463109612464905 -3.030514717102051, -0.20862950012087822 l-2.0804741978645325, 1.8486002087593079 -0.6594990938901901, 3.1028735637664795 l-0.15477117151021957, 3.206249475479126 0.033965876791626215, 3.1970611214637756 l0.21457228809595108, 3.179856538772583 0.3348621353507042, 3.1523582339286804 m20.878477096557617, -1.6520580649375916 l0.31249575316905975, -3.0450239777565002 0.559881366789341, -2.981296479701996 l0.8071282505989075, -2.940646708011627 1.7583343386650085, -2.276730388402939 l2.586745023727417, -1.2637744843959808 2.8052663803100586, 0.706227496266365 l1.2933433055877686, 2.5000879168510437 0.220003891736269, 2.934533953666687 l0.018209635745733976, 2.942739725112915 0.016395063139498234, 2.889699637889862 l0.05503039341419935, 2.870223820209503 m-12.393794059753418, -6.061294674873352 l0.5951244384050369, -2.6540660858154297 1.5545625984668732, -2.1180759370326996 l2.3505228757858276, -1.281149536371231 2.743426263332367, -0.5147555097937584 l2.5297343730926514, 0.7116824388504028 1.9608776271343231, 1.732875406742096 l1.3342399895191193, 2.215455174446106 0.9970239549875259, 2.3709972202777863 l0.9235551953315735, 2.412947714328766 -0.3628116846084595, 2.370798736810684 m-17.294620275497437, -7.559202313423157 l0.36108631640672684, -2.6494264602661133 1.6024371981620789, -2.010648101568222 l2.4426211416721344, -1.1047850549221039 2.831847369670868, -0.434960201382637 l2.6097306609153748, 0.6998942047357559 2.1056243777275085, 1.5896238386631012 l0.8863993734121323, 2.4855656921863556 0.01522417995147407, 2.668065130710602 l-1.7746178805828094, 2.770736515522003 -2.330455034971237, 1.4217036962509155 l-2.6437684893608093, 0.8607902377843857 -2.694089114665985, 0.5918502807617188 l-2.7039146423339844, 0.374227799475193 -2.6822638511657715, 0.11120046488940716 l-2.668338716030121, -0.10346773080527782 -2.6474493741989136, -0.3204870969057083 l-2.586616277694702, -0.5379436537623405 -2.364002615213394, -1.20313361287117 l-1.9049888849258423, -1.758236587047577 -1.35604590177536, -2.2226880490779877 l-0.6895759701728821, -2.4511435627937317 -0.10261924006044865, -2.539932429790497 l0.3505907207727432, -2.4996766448020935 1.5230295062065125, -1.8976390361785889 l2.326616793870926, -1.0349294543266296 2.694728970527649, -0.4877626895904541 l2.8309565782546997, -0.0005292912464938127 2.783769369125366, 0.2742026373744011 l2.751845121383667, 0.4560687765479088 2.762969434261322, 0.5705386772751808 l2.6862317323684692, 0.683925449848175 2.654086649417877, 0.8367816358804703 l2.5716641545295715, 0.9847716242074966 2.53130704164505, 1.1177945137023926 l2.4822314083576202, 1.2400425970554352 2.197604477405548, 1.5544112026691437 l2.0941871404647827, 1.7080380022525787 2.0260873436927795, 1.7862357199192047 l1.9272658228874207, 1.8810853362083435 m60.06976514781854, -11.884750824283401 l-0.24737054482102394, 3.340710401535034 -0.1994374580681324, 3.34622859954834 l-0.1290090475231409, 3.3698558807373047 -0.07750975899398327, 3.3509722352027893 l-0.00044992269977228716, 3.3530572056770325 0.07371760439127684, 3.347003757953644 l0.14963233843445778, 3.330622911453247 2.3564279079437256, 1.6945880651474 l3.26081246137619, 0.59258833527565 3.27272891998291, 0.5229275673627853 l3.2792645692825317, 0.43355509638786316 3.2795315980911255, 0.400954931974411 l3.2591423392295837, 0.41274789720773697 3.275845944881439, 0.42595967650413513 l3.2743608951568604, 0.4048942029476166 3.266081213951111, 0.38719505071640015 l3.2493576407432556, 0.3346863389015198 3.249712884426117, 0.2961539849638939 l3.2625553011894226, 0.22870266810059547 3.251151740550995, 0.16587873920798302 l3.2350456714630127, 0.04824478179216385 2.3245878517627716, -1.6096390783786774 l0.6095962598919868, -3.1606608629226685 -0.249993447214365, -3.215821087360382 l-0.8430531620979309, -3.1766071915626526 -1.8191422522068024, -2.6994162797927856 l-2.6053181290626526, -2.051831930875778 -2.9150593280792236, -1.5029291808605194 l-3.0674245953559875, -1.1896827816963196 -3.074408769607544, -0.9667518734931946 l-3.144357204437256, -0.8444375544786453 -3.1433454155921936, -0.7896272093057632 l-3.1309089064598083, -0.7816518843173981 -3.1449267268180847, -0.840047150850296 l-3.067607283592224, -0.9365642815828323 -3.01832377910614, -1.0904696583747864 l-2.9733556509017944, -1.2148242443799973 -2.976568043231964, -1.25593900680542 l-2.9517510533332825, -1.2607383728027344 -2.997206449508667, -1.0701795667409897 l-3.002117872238159, 0.6706289947032928 m17.50135898590088, 21.610424518585205 l0.9078022837638855, -3.1767183542251587 1.978631615638733, -2.572666108608246 l2.6009196043014526, -1.7227035760879517 2.9565802216529846, -1.0677558183670044 l3.1093615293502808, -0.5994988605380058 4.396500289440155, 0.12242772616446018 l4.249461889266968, 1.235315054655075 2.0849773287773132, 2.1816644072532654 l0.7491088658571243, 2.944580614566803 -1.9189783930778503, 2.221681624650955 m-16.388415098190308, 1.1671870946884155 l0.9591071307659149, -2.75031715631485 1.9522522389888763, -2.2050416469573975 l2.5732794404029846, -1.4249303936958313 2.8817585110664368, -0.8759383857250214 l3.0468162894248962, -0.43636366724967957 4.179375469684601, 0.5651279538869858 l1.873352825641632, 1.9297491014003754 0.5098894983530045, 2.7539652585983276 l-0.4507618770003319, 2.7479010820388794 -2.381497323513031, 2.713053822517395 m-23.791730403900146, -15.624638795852661 l2.831994593143463, 1.296095997095108 2.4493859708309174, 1.7682528495788574 l2.1506741642951965, 2.012736052274704 2.1195533871650696, 2.078935354948044 l2.0968911051750183, 2.050284892320633 2.1127504110336304, 2.02148899435997 l1.9721676409244537, 2.0879660546779633 2.4031154811382294, 1.597956120967865 l2.7873751521110535, 0.9984912723302841 2.831580340862274, 0.881817489862442 l2.861451804637909, 0.7688868790864944 2.9635632038116455, 0.3676612675189972 l2.347496747970581, -1.286877691745758 0.9104762971401215, -2.6710012555122375 m-32.47354745864868, -12.631412744522095 l-2.395540028810501, 1.1879530549049377 -1.7537946999073029, 2.0668235421180725 l0.9360859543085098, 2.1662183105945587 2.6186853647232056, 0.89992955327034 l2.0318500697612762, -1.3469578325748444 0.7562385499477386, -2.6331672072410583 l-2.470106780529022, -2.039303183555603 -3.4929630160331726, 0.3205358609557152 m4.982950389385223, 0.42660992592573166 l-2.3232759535312653, 1.207236498594284 -1.6514672338962555, 1.9608661532402039 l1.6593319177627563, 1.238892748951912 2.058737426996231, -1.5598872303962708 l0.5419954657554626, -3.486793637275696 -2.0793987810611725, -1.7302268743515015 m3.719891905784607, 5.806620121002197 l-2.3708850145339966, 1.2158243358135223 -1.7067813873291016, 1.9334731996059418 l1.7385761439800262, 1.0778532177209854 1.8971443176269531, -1.6150745749473572 l0.01678285771049559, -4.537333250045776 m5.130305886268616, 0.7733425498008728 l-2.1116405725479126, 1.543722003698349 -1.3481815159320831, 2.134024351835251 l1.9004353880882263, 0.7117349654436111 1.8156978487968445, -1.5720067918300629 l-0.20794540643692017, -4.259672164916992 m4.638427197933197, 1.3956750929355621 l-1.9366709887981415, 1.7071080207824707 -1.8491341173648834, 1.9645233452320099 l1.576704978942871, 0.8709955215454102 1.868734061717987, -1.6503164172172546 l-0.09306267835199833, -4.305182993412018 m75.24119293317199, -1.4935572631657124 l2.931332290172577, 1.2828713655471802 2.902904450893402, 1.454615741968155 l2.8945398330688477, 1.4748476445674896 2.919999361038208, 1.4488321542739868 l3.058866858482361, 1.0753120481967926 3.099587857723236, 0.9939652681350708 l3.0999886989593506, 0.9186520427465439 3.1303831934928894, 0.8574150502681732 l3.1275931000709534, 0.7656148821115494 3.147806227207184, 0.6902159750461578 l3.1642645597457886, 0.6251838803291321 3.1634458899497986, 0.5047444254159927 l3.180353045463562, 0.4330340027809143 3.194672167301178, 0.34620411694049835 l3.1356358528137207, 0.2587498724460602 3.1000807881355286, 0.14305955730378628 l2.8943780064582825, -0.6548324972391129 1.208944097161293, -2.668483555316925 l-0.44879693537950516, -3.104521334171295 -1.1316819489002228, -2.926817238330841 l-1.5167097747325897, -2.683742344379425 -2.214750349521637, -2.191031277179718 l-2.662067711353302, -1.6720220446586609 -2.882985472679138, -1.2525172531604767 l-2.968207895755768, -0.9828688949346542 -3.0331069231033325, -0.896640419960022 l-3.0621594190597534, -0.7747263461351395 -3.1087324023246765, -0.720156729221344 l-3.1083035469055176, -0.6604401767253876 -3.1201931834220886, -0.6671013683080673 l-3.0828288197517395, -0.6655856966972351 -3.098401427268982, -0.6832809746265411 l-3.109344244003296, -0.6529702991247177 -3.149869740009308, -0.5778771266341209 l-3.119880259037018, -0.4706611856818199 -3.1341376900672913, -0.3560161218047142 l-2.3748326301574707, 1.5168225765228271 -1.0318732261657715, 2.991796135902405 l-0.4983198270201683, 3.15475195646286 -0.2511810325086117, 3.1945860385894775 l-0.021994540002197027, 3.1990331411361694 0.1765448972582817, 3.158041536808014 m21.372861862182617, -1.5352436900138855 l0.41868608444929123, -3.0196398496627808 0.7776923477649689, -2.9911240935325623 l0.961131677031517, -2.9295092821121216 1.813959926366806, -2.36508846282959 l2.581089437007904, -1.4030373096466064 2.853343188762665, 0.5824415013194084 l1.3040612637996674, 2.426910847425461 0.27837567031383514, 2.917509078979492 l0.06855466868728399, 2.9125887155532837 0.06674906704574823, 2.873982787132263 l0.02791187260299921, 2.8380662202835083 -1.2378206849098206, 3.0541741847991943 m-12.295130491256714, -9.072557091712952 l0.6686214357614517, -2.659919261932373 1.7334471642971039, -2.117680460214615 l2.5965723395347595, -1.1512959003448486 2.920127511024475, -0.4288911819458008 l1.6999346017837524, 1.8108609318733215 0.20497126504778862, 2.810337245464325 l-1.751125305891037, 3.1440091133117676 -2.3617981374263763, 1.729542315006256 l-3.2850950956344604, 1.4415083825588226 -3.3920592069625854, 1.7119139432907104 l-2.9178589582443237, 2.027301788330078 m0.14652669429779053, -10.452094078063965 l2.6398399472236633, -1.2900656461715698 2.8471243381500244, -0.9895683079957962 l2.8717517852783203, -0.6559517234563828 2.9435262084007263, -0.26966486126184464 l2.9484543204307556, 0.07637614384293556 1.532561331987381, 1.8120560050010681 l0.19021302461624146, 2.7297186851501465 -1.9928088784217834, 1.786457747220993 l-2.823854982852936, 0.8690138161182404 -2.8985577821731567, 0.5378184095025063 l-2.915429174900055, 0.3393064811825752 -2.9321029782295227, 0.22640995681285858 l-2.912527918815613, 0.020347987301647663 -2.9364868998527527, -0.19495902583003044 l-2.941865622997284, -0.3517017513513565 -2.92820543050766, -0.5232267454266548 l-2.8918054699897766, -0.6447148323059082 -2.854461669921875, -0.7522685825824738 l-2.367086261510849, -1.4639487862586975 -0.6714732944965363, -2.6920926570892334 l1.4519594609737396, -2.1822823584079742 2.6304444670677185, -1.1411046236753464 l2.957397997379303, -0.5465616285800934 3.0430328845977783, -0.19603129476308823 l3.026098310947418, 0.028116540051996708 3.0221840739250183, 0.1891135610640049 l2.9775214195251465, 0.30754026025533676 2.950916290283203, 0.4305098205804825 l2.8914591670036316, 0.5416953563690186 2.878389060497284, 0.6280954927206039 l2.867646813392639, 0.7091483473777771 2.8032392263412476, 0.791589543223381 l2.7903077006340027, 0.8483912795782089 2.77629554271698, 0.9251660853624344 l2.7762746810913086, 0.9475178271532059 2.713521420955658, 0.9671104699373245 " fill="none" stroke="black" stroke-width="1" /></svg>