<?xml version="1.0" encoding="utf-8" ?>
<svg baseProfile="full" height="84.42999757826328" version="1.1" width="99.77257162332535" xmlns="http://www.w3.org/2000/svg" xmlns:ev="http://www.w3.org/2001/xml-events" xmlns:xlink="http://www.w3.org/1999/xlink"><defs /><rect fill="white" height="84.42999757826328" width="99.77257162332535" x="0" y="0" /><path d="M27.56934376404388, 28.15536440932192 m0.0, 3.3054888248443604 l0.0, 3.3054888248443604 0.0, 3.3054909110069275 l0.8796101808547974, 3.182734251022339 0.7521887868642807, 3.2186251878738403 l0.7923636585474014, 3.209097385406494 0.7568426430225372, 3.2176652550697327 l2.000267654657364, 2.609674334526062 2.9067111015319824, 1.5373165905475616 l3.2847073674201965, -0.016363539034500718 3.131873607635498, -1.0285510122776031 l3.167538642883301, -0.9440373629331589 3.1649887561798096, -0.9534531086683273 l3.1885740160942078, -0.8709434419870377 3.2506802678108215, -0.5938992649316788 l3.255896270275116, -0.5704199150204659 m0.0, 0.0 l2.7956372499465942, -1.6718688607215881 2.8610393404960632, -1.557336151599884 l2.9247096180915833, -1.4341676235198975 2.6834723353385925, -1.845984011888504 l0.7185917347669601, -3.157590925693512 0.004671868227887899, -3.256940245628357 l-0.12934435158967972, -3.2547762989997864 -0.8231247961521149, -3.1369274854660034 l-2.796977162361145, -1.6455015540122986 -3.2508644461631775, -0.19862839952111244 l-3.2471963763237, 0.2577187307178974 -2.773333787918091, 1.7086398601531982 l-2.116924375295639, 2.475242167711258 -2.4803300201892853, 2.1100884675979614 l-2.8794649243354797, 1.5218891203403473 -3.2260310649871826, 0.4495593160390854 l-2.3226284980773926, -2.282537668943405 -2.044476419687271, -2.5356104969978333 l-1.5464363992214203, -2.8650450706481934 -1.7262692749500275, -2.762068212032318 l-2.4871838092803955, -1.987432986497879 -3.2079464197158813, 0.5144264921545982 l-2.9411211609840393, 1.39656662940979 -3.0826550722122192, 1.0526543110609055 m23.976244926452637, 9.369053840637207 l0.32695479691028595, 3.2720616459846497 1.3588736951351166, 3.006037175655365 l3.184342086315155, 5.1498109102249146 m0.0, -12.92829155921936 l0.75765460729599, 3.19665789604187 2.9886355996131897, 5.2304887771606445 m0.561940148472786, -12.919957637786865 l0.7492588460445404, 3.1630948185920715 1.2533245980739594, 2.781689465045929 l2.867591083049774, 5.666506290435791 m-15.172463655471802, -1.1252862960100174 l-3.1742945313453674, 0.0 -3.172524571418762, -0.10322108864784241 l-2.9802680015563965, -1.0470505058765411 -2.6693546772003174, -1.6985620558261871 l-1.1638052016496658, 2.2827115654945374 0.5435846745967865, 3.1199079751968384 l0.89181087911129, 3.046238124370575 1.329716444015503, 2.7621179819107056 l2.6583170890808105, 0.6793208420276642 2.939521074295044, -1.1767948418855667 l3.0002373456954956, -1.0213272273540497 2.8925004601478577, -1.304011195898056 l2.8381600975990295, -1.4216159284114838 m-14.797834157943726, 1.317002922296524 l2.805732786655426, -0.5707079172134399 1.0992570221424103, 3.0530619621276855 l-2.2191613912582397, 1.451983004808426 m-13.299319744110107, -22.48072862625122 l-0.9444253891706467, 3.0176007747650146 -1.0509123653173447, 2.9821759462356567 l-0.3866950795054436, 3.133513629436493 0.9267338365316391, 2.9938694834709167 l1.3385732471942902, 2.861931324005127 1.1827976256608963, 2.930605411529541 l0.563226118683815, 3.0957448482513428 0.4246390238404274, 3.133271634578705 l0.4469934105873108, 3.1301677227020264 1.632182002067566, 2.5164610147476196 l2.900306284427643, 0.8288486301898956 3.1580090522766113, 0.09196940809488297 l3.138289451599121, -0.29939955100417137 2.8184884786605835, -1.2447328865528107 l2.583233118057251, -1.8233925104141235 m0.0, 0.0 l3.300437033176422, -0.35766590386629105 3.241782486438751, -0.5725318565964699 l3.0713453888893127, -1.0058916360139847 2.6350218057632446, -1.8309444189071655 l3.8604512810707092, -1.6676849126815796 m0.0, 0.0 l2.3729050159454346, -2.3048830032348633 2.9269975423812866, -1.5765035152435303 l3.113180100917816, -1.1646591871976852 2.788577377796173, -1.7708180844783783 l1.0408306121826172, -2.8289642930030823 0.30757132917642593, -3.3077967166900635 l-0.10163313709199429, -3.3042487502098083 -1.1985702067613602, -2.6552772521972656 l-2.3699291050434113, -1.875477135181427 -4.197073578834534, -0.19171658903360367 " fill="none" stroke="black" stroke-width="1" /></svg>