<?xml version="1.0" encoding="utf-8" ?>
<svg baseProfile="full" height="123.71981216827407" version="1.1" width="1026.9267704337835" xmlns="http://www.w3.org/2000/svg" xmlns:ev="http://www.w3.org/2001/xml-events" xmlns:xlink="http://www.w3.org/1999/xlink"><defs /><rect fill="white" height="123.71981216827407" width="1026.9267704337835" x="0" y="0" /><path d="M25, 25 m0.0, 0.0 m28.02603545016609, 49.13638786057163 l2.7684485912323, 1.183251366019249 3.014717400074005, 0.5397329106926918 l2.9886841773986816, 0.4049896076321602 3.0042386054992676, 0.42406290769577026 l2.990574836730957, 0.4164056107401848 3.0028432607650757, 0.4335576295852661 l2.992650270462036, 0.4770822823047638 2.9680445790290833, 0.5087962746620178 l2.994118332862854, 0.4981207847595215 2.9945623874664307, 0.4974793270230293 l2.9752367734909058, 0.4734981432557106 2.9911473393440247, 0.43794285506010056 l2.9856261610984802, 0.39275817573070526 2.977549433708191, 0.3859109431505203 l2.946458160877228, 0.3630056604743004 2.9048097133636475, 0.38951199501752853 l1.59743070602417, 1.911952793598175 0.04480879753828049, 2.8496944904327393 l-2.008669227361679, 1.7737101018428802 -2.815021276473999, 0.7622239738702774 l-2.8997164964675903, 0.438586063683033 -2.9751676321029663, 0.23037632927298546 l-3.0673858523368835, -4.428323336469475e-05 -3.065355122089386, -8.906928997021168e-05 l-3.0283790826797485, -0.08700687438249588 -3.0374571681022644, -0.15569064766168594 l-3.0079296231269836, -0.22191297262907028 -2.9867541790008545, -0.26408661156892776 l-2.990669906139374, -0.29381535947322845 -2.962891161441803, -0.3556980937719345 l-2.924545109272003, -0.38969628512859344 -2.9062801599502563, -0.4131242632865906 l-2.95648992061615, -0.4490131512284279 -2.92054146528244, -0.5565782263875008 l-1.8231603503227234, -2.0153720676898956 -0.39076872169971466, -2.8918543457984924 l-0.03189031733199954, -2.9634854197502136 0.12257381342351437, -2.928597331047058 l0.2395736239850521, -2.9256445169448853 m-0.04138728603720665, 7.394038438796997 l0.6089445576071739, 2.824675142765045 2.179901897907257, 1.6112278401851654 l2.883923053741455, 0.6613670289516449 2.912313938140869, 0.6032023206353188 l2.8898152709007263, 0.620620921254158 2.9108959436416626, 0.6009852141141891 l2.8979164361953735, 0.5745123699307442 2.9280179738998413, 0.525188036262989 l2.942480742931366, 0.4565137252211571 2.9151126742362976, 0.4280049353837967 l2.937489151954651, 0.38506198674440384 2.926914393901825, 0.32584864646196365 l2.9322555661201477, 0.25115637108683586 2.938462197780609, 0.20963959395885468 l2.853008508682251, -0.35524334758520126 2.6933911442756653, -0.9942610561847687 l2.4512308835983276, -1.537562757730484 1.0499439388513565, -2.563070058822632 m-42.58900165557861, -8.982465863227844 l0.4486146569252014, -2.8265398740768433 0.6865102052688599, -2.7705496549606323 l0.832614079117775, -2.7273377776145935 0.9042076021432877, -2.710781693458557 l1.6899175941944122, -2.0321710407733917 2.3639318346977234, -1.1122564226388931 l2.705388069152832, 0.38188088685274124 1.5362372994422913, 2.08538219332695 l0.5897530540823936, 2.786058783531189 0.14607256278395653, 2.808445692062378 l-0.2618638426065445, 2.78642475605011 -1.2651735544204712, 3.365992307662964 l-2.2113245725631714, 3.18112850189209 m-1.961033195257187, -12.487491369247437 l2.3009851574897766, 1.2519210577011108 2.5423771142959595, 1.0535287111997604 l2.602664828300476, 0.8070821315050125 3.7581169605255127, 0.8792447298765182 l2.7876919507980347, 0.5546175688505173 3.8356536626815796, 0.6153634190559387 l4.075505435466766, 0.8831196278333664 2.7827951312065125, 0.8421260118484497 l2.5917959213256836, 1.1885536462068558 2.319537401199341, 1.616116464138031 l1.8990075588226318, 1.993194967508316 1.1525703221559525, 3.784525692462921 l0.21019870415329933, 2.783585786819458 m-28.165388107299805, -17.724751234054565 l2.082383632659912, 1.6543285548686981 1.7048011720180511, 2.0568163692951202 l1.4145475625991821, 2.210945188999176 1.7213872075080872, 1.9864174723625183 l1.6649040579795837, 1.9117653369903564 2.1750856935977936, 1.4516821503639221 l2.444397062063217, 1.071494147181511 2.569400370121002, 0.8682111650705338 l2.6513463258743286, 0.6819973886013031 3.946848511695862, 0.5714702978730202 l4.169560074806213, 0.15407612547278404 m56.4478285505902, -24.146392832044512 l-0.14772741124033928, 3.319225311279297 -0.17583223059773445, 3.3711427450180054 l-0.2153518795967102, 3.3689531683921814 -0.18682869151234627, 3.3750170469284058 l-0.15859289094805717, 3.370789885520935 -0.10618925094604492, 3.3604401350021362 l-0.03865676932036877, 3.371046483516693 0.0028685154393315315, 3.3723607659339905 l1.859445720911026, 1.991921216249466 3.099961578845978, 0.6775406002998352 l3.137894570827484, 0.6059207394719124 3.0976977944374084, 0.5159583315253258 l3.1650391221046448, 0.5072665959596634 3.140627145767212, 0.5095967277884483 l3.1471052765846252, 0.46084556728601456 3.147346079349518, 0.4534944146871567 l3.172220289707184, 0.39395734667778015 3.1548425555229187, 0.3514666110277176 l3.1590986251831055, 0.3001166693866253 3.1431522965431213, 0.24156255647540092 l3.1562668085098267, 0.19148506224155426 3.1346148252487183, 0.12124709784984589 l2.4041730165481567, -1.4270196855068207 0.8279892057180405, -3.0815094709396362 l0.1396786980330944, -3.2512161135673523 -0.45992549508810043, -3.1286579370498657 l-0.9643774479627609, -3.0315005779266357 -2.0079922676086426, -2.2608600556850433 l-2.5893056392669678, -1.6256529092788696 -2.844775915145874, -1.278495341539383 l-2.904163897037506, -1.018424779176712 -2.99052357673645, -0.8780010789632797 l-2.9913705587387085, -0.7988271862268448 -2.969912588596344, -0.8288536220788956 l-2.92596697807312, -0.9177019447088242 -2.9331517219543457, -1.045432761311531 l-2.571214735507965, -1.7328207194805145 -1.4305193722248077, -2.7497684955596924 l-0.8623338490724564, -3.0063533782958984 -2.121453136205673, -1.788707822561264 l-3.053443431854248, -0.24890603497624397 -3.100287616252899, 0.07352390792220831 l-3.118315041065216, 0.07451980374753475 -3.207371234893799, 0.35888083279132843 m13.739646673202515, 24.729197025299072 l2.7332019805908203, 1.0739994049072266 2.9241254925727844, 0.6782706081867218 l2.9459574818611145, 0.5957069993019104 2.976495325565338, 0.5515676364302635 l2.9535916447639465, 0.5298390984535217 2.955564260482788, 0.47817088663578033 l2.952178120613098, 0.4552510753273964 2.9590648412704468, 0.46734046190977097 l2.9683876037597656, 0.41489962488412857 2.9462501406669617, 0.36638423800468445 l2.8316086530685425, -0.4685613512992859 1.5807032585144043, -2.333415001630783 m-32.99560308456421, -14.66306209564209 l0.12324619106948376, 3.1567978858947754 0.16885332763195038, 3.193490207195282 l0.20889846608042717, 3.1580200791358948 0.22441472858190536, 3.947475552558899 l-0.16064558178186417, 4.0356966853141785 -0.6311514973640442, 3.982858955860138 l-1.1606847494840622, 3.1049945950508118 -2.7229326963424683, 2.230421155691147 l-3.0665624141693115, 0.6089054420590401 -1.9339685142040253, -2.12648406624794 l-0.3944144770503044, -3.213071823120117 -0.04123576916754246, -3.2772812247276306 l0.06642434746026993, -3.242954909801483 0.11351510882377625, -3.292585015296936 l0.11313334107398987, -3.261556625366211 0.11416715569794178, -3.2310810685157776 l0.11650172993540764, -3.2396703958511353 0.09887006133794785, -3.1720396876335144 l0.14574858359992504, -3.181482255458832 0.10332104749977589, -3.221905827522278 l0.0751629238948226, -3.1544533371925354 m16.394509077072144, 19.5099937915802 l2.463463991880417, 1.3834662735462189 2.685788571834564, 1.0699407011270523 l2.790532410144806, 0.6124032288789749 2.7948561310768127, 0.609164834022522 l2.772492468357086, 0.6532767415046692 2.767617106437683, 0.6137341260910034 l2.7457264065742493, 0.5489712581038475 2.7484431862831116, 0.5209586769342422 l3.838936686515808, -0.008550977800041437 m-30.71615695953369, -13.751269578933716 l2.255466729402542, 1.4421561360359192 2.239072620868683, 1.5714269876480103 l1.9475257396697998, 1.8518424034118652 2.111390233039856, 1.515863835811615 l2.2943198680877686, 1.2590420246124268 2.3704013228416443, 1.156541332602501 l2.4032051861286163, 1.0841945558786392 2.4432651698589325, 1.039804294705391 l2.460922598838806, 0.9369712322950363 2.5196626782417297, 0.7720470428466797 l3.7306439876556396, 0.5265211686491966 3.921695649623871, 0.01382215996272862 m51.10794338048436, -24.314382729353383 l-0.10910865850746632, 3.3484458923339844 -0.11147900484502316, 3.3379605412483215 l-0.12376755475997925, 3.3331936597824097 -0.12065698392689228, 3.3143049478530884 l-0.07530611008405685, 3.31052303314209 -0.06860735360532999, 3.307686746120453 l-0.017877334030345082, 3.3233681321144104 0.02805373165756464, 3.2934072613716125 l2.003968507051468, 1.9202518463134766 3.2366320490837097, 0.5913695693016052 l3.248714506626129, 0.47492656856775284 3.2790642976760864, 0.4267216846346855 l3.2508891820907593, 0.4067065194249153 3.257807195186615, 0.41016198694705963 l3.231433629989624, 0.40298275649547577 3.209405243396759, 0.40396280586719513 l3.2256045937538147, 0.37234313786029816 3.242875337600708, 0.3303925320506096 l3.24289470911026, 0.29452305287122726 3.243286907672882, 0.24860648438334465 l3.249628245830536, 0.19302939996123314 3.2175812125205994, 0.10562216863036156 l3.0582204461097717, -0.7429927587509155 1.6556592285633087, -2.5370430946350098 l-0.14281230047345161, -3.2013309001922607 -0.8586206287145615, -3.097723424434662 l-1.2273436784744263, -2.930172383785248 -2.0853300392627716, -2.452073246240616 l-2.6273566484451294, -1.8276746571063995 -2.958664298057556, -1.3747964799404144 l-3.0545541644096375, -1.0555926710367203 -3.093167245388031, -0.8891182392835617 l-3.1172332167625427, -0.7958612591028214 -3.140149712562561, -0.7988763600587845 l-3.077276051044464, -0.890527218580246 -3.0163493752479553, -1.051446944475174 l-2.675834000110626, -1.756037175655365 -1.5099979937076569, -2.737446427345276 l-0.9439322352409363, -3.0234262347221375 -2.290928065776825, -1.6645130515098572 l-3.2078829407691956, -0.22380804643034935 -3.216160535812378, 0.1095814723521471 l-3.2608044147491455, 0.1338561624288559 -3.2572215795516968, -0.0006210277206264436 m17.264124155044556, 24.635684490203857 l2.6536402106285095, -1.2931188941001892 2.9386529326438904, -1.0278522968292236 l2.8660517930984497, -1.041691154241562 2.919226586818695, -0.8967212587594986 l2.9419928789138794, -0.7373425364494324 2.912331521511078, -0.8061615377664566 l4.066088795661926, -1.4306700229644775 4.489424228668213, -1.6054557263851166 m-19.29924488067627, 9.523106217384338 l2.597092390060425, -1.4703911542892456 2.819524109363556, -1.385834515094757 l2.7674245834350586, -1.3956238329410553 2.741437256336212, -1.2521997094154358 l2.7511295676231384, -1.1354158073663712 3.9904314279556274, -1.8169276416301727 l3.8974976539611816, -2.169199436903 m-17.77114510536194, 10.88958740234375 l2.481353282928467, -1.6560696065425873 2.7589043974876404, -1.6123221814632416 l2.6716312766075134, -1.535872220993042 2.752668261528015, -1.3589155673980713 l2.838578224182129, -1.1646207422018051 3.76447856426239, -1.9870083034038544 m-13.7058687210083, 9.902424812316895 l2.4684973061084747, -1.7345580458641052 2.668728232383728, -1.6052670776844025 l2.65402615070343, -1.5244241058826447 2.7103841304779053, -1.2844005227088928 l3.6312073469161987, -2.0805764198303223 m-9.402278661727905, 9.813618659973145 l2.3034219443798065, -1.8714125454425812 2.3415692150592804, -1.8886803090572357 l2.43966206908226, -1.7071156203746796 3.158380687236786, -2.8022733330726624 m-27.260024547576904, -7.170145511627197 l2.673962712287903, 1.4477302134037018 2.6085972785949707, 1.5517029166221619 l2.6019397377967834, 1.570834368467331 2.3843613266944885, 1.7437130212783813 l2.3860353231430054, 1.765284538269043 2.3975688219070435, 1.7079691588878632 l2.4312548339366913, 1.6431088745594025 2.291611135005951, 1.7527073621749878 l2.6006117463111877, 1.3545960187911987 2.69338458776474, 1.2178172916173935 l2.7097243070602417, 1.1107699573040009 2.7594733238220215, 1.0054995864629745 m-32.135682106018066, -15.775489807128906 l-2.3426885902881622, 1.0788635909557343 -2.7679765224456787, 0.7027943432331085 l-4.140356779098511, 1.0400556027889252 -4.329329431056976, 1.4212580025196075 l-3.5207155346870422, 2.21403107047081 -1.867137998342514, 4.05376523733139 l1.2051041424274445, 2.5809118151664734 3.2624587416648865, 0.7671444863080978 l3.377883732318878, 0.12135382741689682 3.402371108531952, 0.12073150835931301 l3.3956915140151978, 0.18197989091277122 3.3666223287582397, 0.24281876161694527 l3.357532322406769, 0.32583776861429214 3.347002863883972, 0.3553513064980507 l3.3410945534706116, 0.41334375739097595 3.346382975578308, 0.4079999774694443 l3.3278846740722656, 0.42503174394369125 3.3237046003341675, 0.4048752412199974 l3.320063352584839, 0.3776075318455696 3.3271393179893494, 0.32168101519346237 l3.330577313899994, 0.24681920185685158 3.2624095678329468, -0.4987899959087372 l3.0289119482040405, -1.2791098654270172 m54.88147273892537, -30.799047543259803 l0.01991545083001256, 3.3539879322052 -0.010272643994539976, 3.3327189087867737 l-0.01667010481469333, 3.3212488889694214 -0.03406614763662219, 3.320643901824951 l-0.02363517414778471, 3.2835006713867188 -0.02133114030584693, 3.284955620765686 l0.014138825936242938, 3.2918381690979004 0.032533458434045315, 3.2831767201423645 l0.09213687852025032, 3.269987404346466 2.0854079723358154, 1.7218279838562012 l3.1213656067848206, 0.456228107213974 3.183608651161194, 0.3965885192155838 l3.090602457523346, 0.3666963428258896 3.1200629472732544, 0.34508582204580307 l3.130333125591278, 0.3474980592727661 3.110879957675934, 0.36839522421360016 l3.0975839495658875, 0.4020921140909195 3.1168174743652344, 0.3957674279808998 l3.0866923928260803, 0.37566743791103363 3.110881745815277, 0.3328273817896843 l3.1061509251594543, 0.26552967727184296 3.115774393081665, 0.20479433238506317 l2.9653117060661316, -0.6126547604799271 1.8630217015743256, -2.3130957782268524 l0.30402403324842453, -3.1931492686271667 -0.3512771427631378, -3.2749339938163757 l-0.8832380920648575, -3.1418773531913757 -1.9717098772525787, -2.34852135181427 l-2.559778392314911, -1.7457400262355804 -2.7557021379470825, -1.2760059535503387 l-2.876175045967102, -1.0216916352510452 -2.919451892375946, -0.907680094242096 l-2.9383057355880737, -0.8714182674884796 -2.919205129146576, -0.8937922865152359 l-2.8977832198143005, -0.9624288976192474 -2.5741195678710938, -1.6767539083957672 l-1.3400870561599731, -2.8145042061805725 -0.4331386461853981, -3.2283973693847656 l-0.28727659955620766, -3.1786227226257324 -0.3260958194732666, -3.192776143550873 l-2.1053893864154816, -1.4915692806243896 -3.038983643054962, 0.053978823125362396 l-3.057154417037964, 0.3174786642193794 -3.051697015762329, 0.3375076875090599 l-3.0269303917884827, 0.28647422790527344 -3.058592677116394, 1.2496092170476913 m12.897175550460815, 25.875403881072998 l2.6347708702087402, 1.2745510041713715 2.8592216968536377, 0.8363056927919388 l2.8733253479003906, 0.7091310620307922 2.8938159346580505, 0.6462882459163666 l2.884873151779175, 0.6245745718479156 2.9025208950042725, 0.559302493929863 l2.894938886165619, 0.4997223988175392 2.896924912929535, 0.45535802841186523 l2.8974875807762146, 0.39316345006227493 2.892889976501465, 0.365324504673481 l2.7831554412841797, -0.5129021778702736 1.6598671674728394, -2.3312437534332275 m-31.273322105407715, -17.057101726531982 l-1.9798949360847473, 1.7860034108161926 -2.389771044254303, 1.4306968450546265 l-2.4681270122528076, 1.2610702216625214 -2.4903467297554016, 1.1391304433345795 l-2.6702871918678284, 0.7643777877092361 -4.007590115070343, 0.7879137992858887 l-3.9184924960136414, 0.6209871172904968 -3.150188624858856, 0.7488951086997986 l0.8201056718826294, 2.1345506608486176 2.7097901701927185, 1.045522540807724 l2.9543909430503845, 0.520036518573761 2.985413074493408, 0.5089976266026497 l2.976345419883728, 0.499698705971241 2.984985113143921, 0.48741918057203293 l3.007762134075165, 0.4978187009692192 2.9837310314178467, 0.5042339861392975 l2.960214912891388, 0.5230985954403877 2.961144745349884, 0.5547592416405678 l2.948077917098999, 0.5707802623510361 2.919170558452606, 0.5879408121109009 l2.9348137974739075, 0.5699706450104713 2.9352739453315735, 0.5528659746050835 l2.9398712515830994, 0.5224338918924332 2.9242226481437683, 0.44351976364851 l2.9638436436653137, 0.3654288873076439 2.9373398423194885, 0.2885698527097702 l2.1029026806354523, -1.5196959674358368 m-26.679518222808838, -19.618330001831055 l-2.211112082004547, 1.7128293216228485 -2.6048243045806885, 1.3077633082866669 l-3.5173267126083374, 1.493731439113617 -3.9802157878875732, 1.49376779794693 l-4.511870741844177, 1.661456823348999 m17.352463006973267, -5.9035724401474 l-2.4880459904670715, 1.87117338180542 -2.8145015239715576, 1.6194142401218414 l-2.934403419494629, 1.3971774280071259 -4.819593727588654, 2.5124651193618774 l-4.642688632011414, 2.4632135033607483 m15.885753631591797, -8.70684027671814 l-2.3339717090129852, 2.051582634449005 -2.515477240085602, 1.9819819927215576 l-2.6172861456871033, 1.8341821432113647 -4.297628700733185, 2.768705189228058 m11.599198579788208, -6.813602447509766 l-2.0476101338863373, 2.501334249973297 -2.513776123523712, 2.0128992199897766 l-4.1689857840538025, 2.642337381839752 m10.679159164428711, -6.564387083053589 l-1.7761923372745514, 2.7230769395828247 -4.123543798923492, 3.8043540716171265 m83.5296626877971, -23.373738888822118 l-0.10347639210522175, 3.3067747950553894 -0.06913257762789726, 3.347541093826294 l-0.06719885393977165, 3.312256336212158 -0.09082471951842308, 3.284895420074463 l-0.09325887076556683, 3.2676011323928833 -0.060124751180410385, 3.2617881894111633 l-0.01838104333728552, 3.250490128993988 0.03394391853362322, 3.215283155441284 l0.06828477140516043, 3.215595781803131 1.9749324023723602, 1.9051381945610046 l3.24474036693573, 0.5345885828137398 3.276244103908539, 0.3701677545905113 l3.234129250049591, 0.34305479377508163 3.235233426094055, 0.3232959285378456 l3.261725604534149, 0.3303704410791397 3.234306573867798, 0.348299965262413 l3.24401319026947, 0.3471234068274498 3.2250478863716125, 0.3318450599908829 l3.232668936252594, 0.30252667143940926 3.238475024700165, 0.26764800772070885 l3.227725028991699, 0.23117508739233017 3.2406288385391235, 0.1664944365620613 l3.2581940293312073, -0.0002730305459408555 2.1997112035751343, -1.7846381664276123 l0.46557873487472534, -3.087036907672882 -0.35038936883211136, -3.171605169773102 l-0.8618774265050888, -2.985852360725403 -1.9974260032176971, -2.2653336822986603 l-2.6382526755332947, -1.6075873374938965 -2.833491563796997, -1.2031036615371704 l-2.932664155960083, -0.9928270429372787 -3.0003738403320312, -0.8769690245389938 l-3.047720491886139, -0.8419115096330643 -3.034653663635254, -0.886150449514389 l-2.9963403940200806, -0.9877236932516098 -2.9086118936538696, -1.1347868293523788 l-2.6113617420196533, -1.7739561200141907 -1.3116580247879028, -2.7760297060012817 l-0.766371414065361, -3.0708879232406616 -0.579821802675724, -3.0566594004631042 l-0.5951826274394989, -3.0430200695991516 -2.328992038965225, -1.3368909060955048 l-3.1289461255073547, 0.05605997983366251 -3.1362292170524597, 0.24669412523508072 l-3.130016326904297, 0.27770871296525 -3.439227044582367, 1.3213038444519043 m12.06581711769104, 26.921720504760742 l2.7268123626708984, 1.1293365806341171 3.0047425627708435, 0.8892092853784561 l3.0461683869361877, 0.7353078573942184 3.050665557384491, 0.648319274187088 l3.0670371651649475, 0.6049127876758575 3.0485758185386658, 0.5784902349114418 l3.073737919330597, 0.5281432718038559 3.0540522933006287, 0.4561368376016617 l3.0739569664001465, 0.3972945362329483 3.08330237865448, 0.34659892320632935 l3.0852439999580383, 0.3063810057938099 2.3998406529426575, -1.2355675548315048 m-36.58884525299072, -20.25723695755005 l0.2546590566635132, 3.074663281440735 0.25623705238103867, 3.105044960975647 l0.3334902226924896, 3.0775269865989685 0.39789076894521713, 3.045143485069275 l0.42963169515132904, 3.0288493633270264 0.25956103578209877, 3.9007028937339783 l-0.4732223227620125, 4.125292003154755 m3.387707471847534, -16.96231484413147 l0.14784486033022404, 3.0214205384254456 0.09614177979528904, 3.0382826924324036 l0.09177216328680515, 2.975504696369171 -0.10521728545427322, 4.395458698272705 l-0.8280915766954422, 4.207524359226227 m3.0281785130500793, -18.394014835357666 l0.2220110408961773, 2.990679144859314 0.1476779393851757, 3.0646884441375732 l0.1770205982029438, 3.044561445713043 -0.00028889020541100763, 3.1591764092445374 l-0.0003482374449959025, 3.215624988079071 m1.1881379038095474, -14.78439211845398 l0.21489569917321205, 3.062995970249176 -7.068766080919886e-05, 3.265196681022644 l-0.00023742726625641808, 3.4260421991348267 -0.0002695569310162682, 3.3963286876678467 m2.2754693031311035, -12.140408754348755 l0.2031930908560753, 3.1458255648612976 -9.1990932560293e-05, 3.4427016973495483 l-0.0002498275898688007, 3.5619157552719116 m0.8968783169984818, -9.38026249408722 l0.32455071806907654, 3.2110291719436646 -0.00021656265744240955, 3.5763993859291077 l-0.00026151850761380047, 3.8520804047584534 m0.4317174106836319, -10.257875919342041 l0.3751254826784134, 3.1757214665412903 -0.00011792517398134805, 3.596888780593872 l-0.00016665981092955917, 3.7396055459976196 m-0.13329791836440563, -11.064703464508057 l0.33659838140010834, 3.1163153052330017 -7.264800387929427e-05, 3.5341590642929077 l0.07239574566483498, 4.999532103538513 m-0.051030651666224, -11.631484031677246 l0.30098089948296547, 3.0957841873168945 -0.0001987085306609515, 3.4630271792411804 l-0.00024466738977935165, 3.7367796897888184 m0.02776447217911482, -10.663424730300903 l0.3103696182370186, 3.0780670046806335 -0.00016450119801447727, 3.5644304752349854 l0.17759554088115692, 4.904367923736572 m76.91279164581829, -32.17699820186681 l-0.09540016762912273, 3.230770230293274 -0.026377728208899498, 3.2297903299331665 l-0.06865308620035648, 3.2288002967834473 -0.051726014353334904, 3.2098618149757385 l-0.06666234694421291, 3.1974494457244873 -0.07791647221893072, 3.1926849484443665 l-0.022541633807122707, 3.195106089115143 0.05289566237479448, 3.1831833720207214 l0.13608893379569054, 3.177599012851715 0.24935124441981316, 3.146594762802124 l2.0685814321041107, 1.7393189668655396 3.1180524826049805, 0.4800540953874588 l3.1761306524276733, 0.3747761622071266 3.123362362384796, 0.32837871462106705 l3.148026168346405, 0.33303771167993546 3.1321531534194946, 0.32843928784132004 l3.1143179535865784, 0.32722800970077515 3.122086524963379, 0.3346558287739754 l3.098185956478119, 0.2920481562614441 3.1282442808151245, 0.2798525057733059 l3.1223779916763306, 0.2578284405171871 3.1162747740745544, 0.21998880431056023 l3.109157085418701, 0.18322601914405823 3.18153977394104, -0.000248462674790062 l2.201749086380005, -1.6223075985908508 0.5745316296815872, -3.0135932564735413 l-0.14559200033545494, -3.1171727180480957 -0.6925959885120392, -3.0108633637428284 l-1.8399815261363983, -2.2743210196495056 -2.5361591577529907, -1.6672171652317047 l-2.8068798780441284, -1.248449757695198 -2.878732979297638, -0.9873806685209274 l-2.9319792985916138, -0.8548004925251007 -2.943718731403351, -0.8251671493053436 l-2.8645917773246765, -0.8818482607603073 -2.8692689538002014, -1.0030002892017365 l-2.819508910179138, -1.2064912170171738 -2.3778337240219116, -1.8411257863044739 l-1.8964774906635284, -2.4474745988845825 -1.4152014255523682, -2.7502885460853577 l-1.027953028678894, -2.8825101256370544 -0.7486135512590408, -2.956661581993103 l-0.6299874931573868, -2.97402024269104 -2.169683128595352, -1.3650454580783844 l-3.0509501695632935, 0.012266619596630335 -3.0211690068244934, 0.2864292822778225 l-3.0462703108787537, 0.3020443022251129 -2.6043468713760376, 1.0967405885457993 m13.29579472541809, 27.32476234436035 l2.5675541162490845, 1.1590021848678589 2.630563974380493, 1.1246547102928162 l2.653818428516388, 1.0317527502775192 2.668946385383606, 0.9521091729402542 l2.6891544461250305, 0.8752257376909256 2.8188571333885193, 0.6406209617853165 l2.821727991104126, 0.5662039294838905 2.8204986453056335, 0.5066628009080887 l2.8783366084098816, 0.21310800686478615 2.865452468395233, 0.20784279331564903 l4.381538927555084, -0.6540109217166901 1.948484480381012, -1.8895071744918823 m-32.10898160934448, -18.068126440048218 l2.193690687417984, 1.763671636581421 1.8881110846996307, 2.159084379673004 l1.5815435349941254, 2.307688444852829 1.3968904316425323, 2.327467054128647 l2.0064742863178253, 1.7825360596179962 2.4311399459838867, 1.2460839003324509 l2.611647844314575, 0.977240726351738 2.677898108959198, 0.8374060690402985 l2.733285427093506, 0.6695116311311722 2.7641144394874573, 0.591413825750351 l2.8251340985298157, 0.26848817244172096 3.9044126868247986, -0.2682313695549965 m-26.651968955993652, -16.89188241958618 l-1.9834372401237488, 1.8832290172576904 -2.334098517894745, 1.421545147895813 l-3.4096935391426086, 1.3720020651817322 -4.05981570482254, 1.3918578624725342 l-4.430449306964874, 1.3373257219791412 m18.270238637924194, -5.168332457542419 l-2.4923519790172577, 1.6900211572647095 -2.7187076210975647, 1.401824802160263 l-2.832551896572113, 1.1880610883235931 -2.8489387035369873, 0.9947647899389267 l-4.939630329608917, 1.6334635019302368 -5.050116777420044, 1.3390348851680756 m17.361022233963013, -7.236469388008118 l-2.405737042427063, 1.7603819072246552 -2.5453579425811768, 1.7030885815620422 l-2.676943838596344, 1.589457392692566 -5.002938508987427, 1.9972002506256104 l-4.959744215011597, 1.404469758272171 m15.996983051300049, -6.479647755622864 l-2.208075672388077, 2.087976336479187 -2.3659777641296387, 2.0070727169513702 l-2.4833114445209503, 1.8262112140655518 -4.568098783493042, 2.0993849635124207 m12.153569459915161, -6.238957643508911 l-1.9374428689479828, 2.432163506746292 -2.1884171664714813, 2.3072411119937897 l-4.238019585609436, 2.6973310112953186 m9.832264184951782, -6.823208332061768 l-1.6125279664993286, 2.824629843235016 -3.889453411102295, 3.5678422451019287 l-3.7475764751434326, 2.2447052597999573 m9.728638529777527, -7.992985844612122 l-1.6784082353115082, 2.8811603784561157 -3.9333075284957886, 3.6402803659439087 l-3.967331051826477, 2.136269062757492 m92.38263497478329, -28.840175941695634 l-1.0881884396076202, 3.2531115412712097 -1.003590002655983, 3.2969388365745544 l-0.8222583681344986, 3.3444947004318237 -0.6885689496994019, 3.4172791242599487 l-0.5152072012424469, 3.402630090713501 -0.37951815873384476, 3.4243595600128174 l-0.2327704057097435, 3.4276551008224487 -0.08800831623375416, 3.4362387657165527 l0.020003162790089846, 3.4330961108207703 2.20394566655159, 1.9250328838825226 l3.32722544670105, 0.6056907027959824 3.35210382938385, 0.49915220588445663 l3.3345168828964233, 0.45479193329811096 3.3571967482566833, 0.4296018183231354 l3.348557949066162, 0.40690843015909195 3.3438649773597717, 0.3872811421751976 l3.341739773750305, 0.366302989423275 3.3293744921684265, 0.33858146518468857 l3.3251461386680603, 0.31096726655960083 3.3349302411079407, 0.26779644191265106 l3.3279529213905334, 0.20299332216382027 3.346979320049286, 0.14184496365487576 l3.336327075958252, 0.08031196892261505 3.1077122688293457, -0.8213476091623306 l1.6626419126987457, -2.7042219042778015 -0.09335165843367577, -3.3315667510032654 l-0.8740951865911484, -3.243311643600464 -1.3601942360401154, -3.0541884899139404 l-2.3840604722499847, -2.193104326725006 -2.854725420475006, -1.4891739189624786 l-3.048330545425415, -1.1243963241577148 -3.111441135406494, -0.9267200529575348 l-3.1446754932403564, -0.8636630326509476 -3.1436336040496826, -0.8989022672176361 l-3.1317871809005737, -0.9835689514875412 -3.0901527404785156, -1.0925359278917313 l-2.682674527168274, -1.8370403349399567 -2.1612243354320526, -2.5232186913490295 l-1.590917706489563, -2.880784273147583 -1.2023328989744186, -3.086240589618683 l-0.9774776548147202, -3.1818565726280212 -2.385028898715973, -1.5725673735141754 l-3.22357714176178, 0.007836840231902897 -3.2230663299560547, 0.320296511054039 l-3.6534664034843445, 0.7598144561052322 m13.531442880630493, 27.312562465667725 l2.8097009658813477, 1.2748274207115173 3.090750277042389, 1.012597531080246 l3.146059811115265, 0.8585014939308167 3.144901692867279, 0.7893100380897522 l3.1628194451332092, 0.715973749756813 3.1593871116638184, 0.6550343334674835 l3.1542012095451355, 0.5682926625013351 3.173564374446869, 0.4975726082921028 l3.169720768928528, 0.41406311094760895 3.1597957015037537, 0.32005108892917633 l4.182485640048981, -0.7333105057477951 m-37.40824222564697, -19.637545347213745 l2.601442039012909, 1.659233272075653 2.261144518852234, 2.088291198015213 l1.9552648067474365, 2.33877956867218 1.708657592535019, 2.4653317034244537 l2.2294414043426514, 1.9932329654693604 2.643933594226837, 1.4576968550682068 l2.8378626704216003, 1.0493645071983337 2.9567840695381165, 0.8462686836719513 l2.99069344997406, 0.6743446737527847 3.016699254512787, 0.5930785462260246 l3.014865219593048, 0.5853509902954102 3.0336803197860718, 0.5387509614229202 l4.3114688992500305, 0.36853399127721786 4.0784552693367, -0.4275177791714668 m-32.53711462020874, -15.109145641326904 l-2.2676479816436768, 1.5767736732959747 -2.920478582382202, 2.963249683380127 l-2.4510960280895233, 3.325079083442688 -1.7143280804157257, 4.425296485424042 l-0.8825410902500153, 5.203942060470581 m13.422677516937256, -17.430185079574585 l-1.994921863079071, 2.8061944246292114 -2.032689154148102, 2.8210124373435974 l-1.945684552192688, 2.8689220547676086 -2.146434485912323, 4.861674606800079 l-1.506011039018631, 4.9418264627456665 m13.597402572631836, -17.02371120452881 l-1.8406547605991364, 2.793242335319519 -1.9007360935211182, 2.7746883034706116 l-1.8319272994995117, 2.8155651688575745 -1.8115314841270447, 2.793740928173065 l-1.9485850632190704, 4.944546818733215 m12.487475872039795, -13.949849605560303 l-1.7896804213523865, 2.594996392726898 -1.9107040762901306, 2.604774534702301 l-1.893678605556488, 2.5805747509002686 -2.3198260366916656, 4.808035790920258 l-1.7907240986824036, 5.00105619430542 m11.70036792755127, -16.362849473953247 l-1.5910132229328156, 2.7896323800086975 -1.7572267353534698, 2.7942171692848206 l-1.7366240918636322, 2.778078019618988 -1.7457091808319092, 2.769635319709778 l-2.0691820979118347, 4.600467085838318 m79.96947613661177, -34.94797457300592 l-0.10303832590579987, 3.3363884687423706 -0.11266527697443962, 3.3192178606987 l-0.14600948430597782, 3.323740065097809 -0.0975186750292778, 3.31262469291687 l-0.07625398691743612, 3.304099142551422 -0.01774203614331782, 3.291107714176178 l0.016879065660759807, 3.294534683227539 0.049789221957325935, 3.273943066596985 l0.15330894850194454, 3.232763111591339 2.046591192483902, 1.7592546343803406 l3.1649214029312134, 0.47314979135990143 3.1771406531333923, 0.4175833612680435 l3.166990876197815, 0.4109719768166542 3.186001181602478, 0.38426317274570465 l3.1636202335357666, 0.3576171398162842 3.177795112133026, 0.3792797774076462 l3.165094554424286, 0.35188473761081696 3.180006742477417, 0.3351796045899391 l3.1795018911361694, 0.3182181343436241 3.2050949335098267, 0.2647821046411991 l3.1844815611839294, 0.22789550945162773 3.1744760274887085, 0.16676679253578186 l3.169585168361664, 0.08988311514258385 2.9689544439315796, -0.7821447402238846 l1.612406075000763, -2.489723861217499 0.044475640170276165, -3.197304606437683 l-0.6298963725566864, -3.0851557850837708 -1.0856956988573074, -2.985140383243561 l-2.1154944598674774, -2.2146491706371307 -2.6424482464790344, -1.600155532360077 l-2.8950348496437073, -1.1874303966760635 -2.992633283138275, -0.9784208238124847 l-2.975393831729889, -0.8038315922021866 -2.969716787338257, -0.7730519026517868 l-2.96107679605484, -0.7968847453594208 -2.9494139552116394, -0.9227252751588821 l-2.9073265194892883, -1.0603531450033188 -2.5794577598571777, -1.732584536075592 l-2.0410847663879395, -2.339745908975601 -1.5486541390419006, -2.7434784173965454 l-1.215268149971962, -2.853209376335144 -0.9979809075593948, -2.961258590221405 l-2.3792575299739838, -1.3283360004425049 -3.0813422799110413, 0.03766489215195179 l-3.0542823672294617, 0.3222130984067917 -3.074382245540619, 0.3399157151579857 l-2.0639176666736603, 1.4812928438186646 m15.955915451049805, 24.16654109954834 l2.5578302145004272, 1.3140790164470673 2.607317864894867, 1.2646818161010742 l2.644834518432617, 1.1516618728637695 2.69516259431839, 1.0130765289068222 l2.8299471735954285, 0.589093528687954 2.8269854187965393, 0.5553276464343071 l2.8000041842460632, 0.5279378220438957 2.8447431325912476, 0.47441549599170685 l2.853780686855316, 0.1308517437428236 4.351775050163269, -0.9105852246284485 l1.9507955014705658, -1.9265489280223846 m-30.67084312438965, -14.503191709518433 l0.04489068407565355, 3.091665208339691 0.11060201562941074, 3.1507211923599243 l0.17655888572335243, 3.148083984851837 -0.10957642458379269, 3.6601868271827698 l-0.20844198763370514, 3.9070457220077515 -0.6849531084299088, 3.4258341789245605 m5.24728000164032, -21.41190528869629 l-0.057715000584721565, 3.1913018226623535 -0.061361161060631275, 3.20657879114151 l-8.707457709533628e-05, 3.251107633113861 -0.0003754880162887275, 3.254287540912628 l-0.3245921805500984, 4.878648519515991 -1.045500561594963, 4.026994109153748 m3.844780921936035, -22.01836347579956 l0.030494146049022675, 3.1535014510154724 -0.00020025772755616345, 3.2466697692871094 l-0.0002095941272273194, 3.2818275690078735 -0.00024677403416717425, 3.325446844100952 l-0.0002919130929512903, 3.3954334259033203 -0.332401767373085, 4.019719958305359 m1.2638820707798004, -19.187268018722534 l0.07726063951849937, 3.1786206364631653 -0.04379151854664087, 3.258132040500641 l-8.890564458852168e-05, 3.3377262949943542 -0.0002611742638691794, 3.384305238723755 l-0.0002550783938204404, 3.501846492290497 m0.11138021014630795, -15.156292915344238 l0.09039448574185371, 3.188750743865967 -3.0605779102188535e-05, 3.4270352125167847 l-0.00011546237146831118, 3.6275970935821533 -0.00013412596672424115, 3.644394278526306 m-0.1384775061160326, -13.6117684841156 l0.2989254705607891, 3.2818633317947388 -0.00010889768418564927, 3.5216835141181946 l-0.00018008633560384624, 3.758319914340973 -0.00034468266676412895, 3.741847276687622 m0.220963042229414, -13.557837009429932 l0.25119464844465256, 3.2185691595077515 -0.00016898378817131743, 3.555246889591217 l-0.00022512518626172096, 3.770036995410919 -0.00014376781109604053, 3.8145437836647034 m0.24166878312826157, -13.79420280456543 l0.27638478204607964, 3.2141119241714478 0.12071540579199791, 3.274044096469879 l-0.000362619903171435, 3.711627423763275 -0.0002454186324030161, 3.6966606974601746 m0.013769998913630843, -13.683477640151978 l0.2714150585234165, 3.175295889377594 -0.00022194013581611216, 3.5613298416137695 l-0.00022586167688132264, 3.832145035266876 -0.00029522687327698804, 3.772541582584381 m79.70952999085057, -32.75415393989533 l-0.137516176328063, 3.2457858324050903 -0.1459171064198017, 3.272586166858673 l-0.16630079597234726, 3.26196551322937 -0.13387449085712433, 3.258216381072998 l-0.10833580046892166, 3.2327693700790405 -0.09133740328252316, 3.2258248329162598 l-0.039793988689780235, 3.2101354002952576 -0.020013279281556606, 3.209690749645233 l0.018705143593251705, 3.1861206889152527 1.9453904032707214, 1.8082387745380402 l3.147449493408203, 0.5069676786661148 3.184979259967804, 0.44568706303834915 l3.156592845916748, 0.42948901653289795 3.1564226746559143, 0.42226679623126984 l3.1587278842926025, 0.42967256158590317 3.1492045521736145, 0.3874051198363304 l3.1500914692878723, 0.37439774721860886 3.1351661682128906, 0.3590042144060135 l3.0913567543029785, 0.3315763548016548 3.1224647164344788, 0.31249988824129105 l3.116973042488098, 0.27210721746087074 3.1475988030433655, 0.2177571877837181 l3.0347880721092224, -0.520206019282341 2.6873192191123962, -1.347544640302658 l1.4135180413722992, -2.611401081085205 -0.09884782135486603, -3.154226243495941 l-0.775536447763443, -3.043118119239807 -1.21816985309124, -2.87285178899765 l-2.150234580039978, -2.1001358330249786 -2.644873261451721, -1.5115445852279663 l-2.844575345516205, -1.1227884143590927 -2.8754019737243652, -0.8964768797159195 l-2.9243120551109314, -0.8044665306806564 -2.953498959541321, -0.7883124053478241 l-2.942819595336914, -0.8385264128446579 -2.9303374886512756, -0.946735292673111 l-2.8662487864494324, -1.0868395119905472 -2.469121217727661, -1.7750626802444458 l-1.2114763259887695, -2.7907970547676086 -0.7357203215360641, -3.058215379714966 l-0.5041158199310303, -2.9719460010528564 -2.0812061429023743, -1.6978561878204346 l-3.0720561742782593, -0.0398737657815218 -3.06510329246521, 0.10407241061329842 l-3.097199499607086, 0.08398983627557755 -3.3963072299957275, 0.5675595253705978 m13.418495655059814, 25.418360233306885 l2.711571753025055, 0.9701879322528839 2.731415033340454, 1.0721895843744278 l2.739916741847992, 0.9863413870334625 2.7855703234672546, 0.8791734278202057 l2.792055308818817, 0.8185268938541412 2.8600093722343445, 0.6245513632893562 l2.8877317905426025, 0.5651754513382912 2.8834277391433716, 0.495401956140995 l2.8843316435813904, 0.41293852031230927 2.9099678993225098, 0.06995989475399256 l2.772355377674103, -0.6687390804290771 1.621236503124237, -2.2563284635543823 m-33.86566400527954, -17.659982442855835 l-2.1083006262779236, 1.5380610525608063 -2.626887261867523, 1.0717794299125671 l-3.674750328063965, 1.318451166152954 -4.092786610126495, 1.5714994072914124 l-3.9934372901916504, 1.9531087577342987 -2.9130321741104126, 2.895772159099579 l0.5645455420017242, 2.91527658700943 2.8760793805122375, 1.1137673258781433 l3.1395015120506287, 0.42181503027677536 3.1590279936790466, 0.3629233315587044 l3.1560370326042175, 0.37986915558576584 3.1692150235176086, 0.4463000223040581 l3.151448965072632, 0.48666082322597504 3.149614632129669, 0.4965898394584656 l3.13645601272583, 0.5099949985742569 3.1440120935440063, 0.5322123318910599 l3.1444066762924194, 0.5200046300888062 3.1245076656341553, 0.4860827699303627 l3.130555748939514, 0.46746034175157547 3.161337673664093, 0.40739625692367554 l3.133646547794342, 0.35266008228063583 3.124445676803589, 0.30612822622060776 l3.0613085627555847, -0.4320947453379631 2.803879678249359, -1.2984715402126312 m-28.625495433807373, -21.28117799758911 l-2.0766931772232056, 2.070198804140091 -2.4381251633167267, 3.221474587917328 l-1.5616710484027863, 3.5726839303970337 -1.0960689187049866, 3.754611909389496 l-0.525682158768177, 4.715412259101868 0.2596227079629898, 5.256871581077576 m11.187032461166382, -20.41752338409424 l-1.8772971630096436, 2.85088449716568 -1.8773315846920013, 2.846168875694275 l-1.7800219357013702, 2.877803146839142 -1.6567084193229675, 2.9187095165252686 l-1.6018563508987427, 5.152340531349182 -0.93629390001297, 5.393475294113159 m87.71377264696639, -33.156978748738766 l-0.10981310158967972, 3.266263008117676 -0.07080062758177519, 3.267020285129547 l-0.06882126908749342, 3.2217252254486084 -0.05515611730515957, 3.2344552874565125 l-0.07245093584060669, 3.2293090224266052 -0.04200609400868416, 3.2135778665542603 l0.00850495242048055, 3.206532597541809 0.07433920633047819, 3.218616247177124 l0.19439766183495522, 3.2358714938163757 2.106795310974121, 1.7122219502925873 l3.1681129336357117, 0.5183462798595428 3.172721266746521, 0.4512081667780876 l3.1604623794555664, 0.4191751033067703 3.170257806777954, 0.4100584611296654 l3.1644207239151, 0.4057398810982704 3.156485855579376, 0.42677007615566254 l3.1312277913093567, 0.4140252247452736 3.122229278087616, 0.3861910104751587 l3.1272098422050476, 0.37749629467725754 3.148907721042633, 0.3023272193968296 l3.1334486603736877, 0.25564564391970634 3.165142834186554, 0.19358234480023384 l3.148084878921509, 0.11182540096342564 2.318631112575531, -1.5322662889957428 l0.6120011955499649, -3.0402615666389465 -0.11059476062655449, -3.1936556100845337 l-0.6510823220014572, -3.034793734550476 -1.7938686907291412, -2.390960305929184 l-2.4800731241703033, -1.7207883298397064 -2.7880054712295532, -1.341637372970581 l-2.908206880092621, -1.0834811627864838 -2.9548701643943787, -0.9171343594789505 l-2.9914486408233643, -0.7970717549324036 -2.970684766769409, -0.7865110784769058 l-2.929094433784485, -0.8330059051513672 -2.9465672373771667, -0.9858998656272888 l-2.5868451595306396, -1.6477911174297333 -1.3787350058555603, -2.741829752922058 l-0.4121691733598709, -3.105437457561493 -0.22583426907658577, -3.085264563560486 l-0.21411282941699028, -3.1343048810958862 -2.0785722136497498, -1.6343599557876587 l-3.082672953605652, -0.09279528632760048 -3.1175419688224792, 0.11533340439200401 l-3.1478869915008545, 0.1251615211367607 -3.1130924820899963, 0.08086562156677246 l-2.3074671626091003, 1.4712722599506378 m11.002223491668701, 26.502037048339844 l2.6684626936912537, 1.1805357038974762 2.9320496320724487, 0.953582376241684 l2.974640130996704, 0.8025115728378296 2.9839330911636353, 0.6895206123590469 l2.9913493990898132, 0.6236155331134796 2.996637523174286, 0.5994304269552231 l3.0128195881843567, 0.5327627807855606 3.011118173599243, 0.44996026903390884 l3.0171096324920654, 0.3849902004003525 3.0270814895629883, 0.3235713765025139 l3.023923933506012, 0.31112926080822945 2.8982332348823547, -0.5248096957802773 l1.659923940896988, -2.258051335811615 m-32.82707214355469, -18.32985758781433 l2.3763251304626465, 1.666712760925293 1.9803476333618164, 2.1115194261074066 l1.921532303094864, 2.17785581946373 1.70120969414711, 2.2326643764972687 l2.152782529592514, 1.7485950887203217 2.5194820761680603, 1.2901121377944946 l2.6146474480628967, 1.0981729626655579 2.720891833305359, 0.9010621905326843 l2.775385081768036, 0.7562600821256638 2.865431308746338, 0.4204287752509117 l4.148349165916443, -0.0024416393716819584 2.631862163543701, -0.9643121808767319 m-26.883742809295654, -14.740270376205444 l-2.182614654302597, 1.714179813861847 -2.4432311952114105, 1.4188030362129211 l-3.670344650745392, 1.730181723833084 -4.21310693025589, 1.9609315693378448 l-4.304938316345215, 2.0002397894859314 -4.077169299125671, 2.4031713604927063 l-3.0595606565475464, 3.012719452381134 0.7821758836507797, 2.7521267533302307 l3.1105971336364746, 0.9140000492334366 3.270293176174164, 0.26905886828899384 l3.265514075756073, 0.22786429151892662 3.2857292890548706, 0.2539590187370777 l3.260733187198639, 0.2831626310944557 3.2629716396331787, 0.28051435947418213 l3.260003924369812, 0.3305758535861969 3.226415514945984, 0.3579939156770706 l3.2030105590820312, 0.3602374345064163 3.1994208693504333, 0.3801174461841583 l3.185410797595978, 0.3424321487545967 3.1919729709625244, 0.3138089179992676 l3.1759363412857056, 0.3024604730308056 3.186922073364258, 0.26087110862135887 l3.1753742694854736, 0.21301114931702614 3.084881901741028, -0.5857113748788834 l1.945803463459015, -2.3623259365558624 " fill="none" stroke="black" stroke-width="1" /></svg>