<?xml version="1.0" encoding="utf-8" ?>
<svg baseProfile="full" height="90.21716963499784" version="1.1" width="98.31630051136017" xmlns="http://www.w3.org/2000/svg" xmlns:ev="http://www.w3.org/2001/xml-events" xmlns:xlink="http://www.w3.org/1999/xlink"><defs /><rect fill="white" height="90.21716963499784" width="98.31630051136017" x="0" y="0" /><path d="M25.832696709549055, 25.92444859445095 m-0.03068479709327221, 3.2958894968032837 l-0.12125945650041103, 3.2887524366378784 -0.17546379938721657, 3.259086310863495 l-0.15192191116511822, 3.2328853011131287 -0.11527441442012787, 3.239794373512268 l-0.04437184892594814, 3.2049745321273804 -0.026852262672036886, 3.16861093044281 l0.011174558894708753, 3.16869854927063 2.0238275825977325, 1.79770827293396 l3.1564411520957947, 0.49815427511930466 3.2032793760299683, 0.4086040332913399 l3.1561896204948425, 0.40550868958234787 3.158316910266876, 0.3760142996907234 l3.1674104928970337, 0.3836685046553612 3.121616840362549, 0.3833044692873955 l3.1571152806282043, 0.36204803735017776 3.152623176574707, 0.3521144762635231 l3.1347939372062683, 0.33086325973272324 3.1475386023521423, 0.3073428198695183 l3.1171375513076782, 0.25881655514240265 3.1458374857902527, 0.230709258466959 l3.1253960728645325, 0.16258513554930687 2.951783537864685, -0.6350330263376236 l1.608411967754364, -2.3832623660564423 -0.007519775535911322, -3.1071829795837402 l-0.693603977560997, -3.1268641352653503 -1.8834026157855988, -2.3792022466659546 l-2.524714469909668, -1.7020967602729797 -2.762475609779358, -1.2776798009872437 l-2.855437397956848, -1.0141289234161377 -2.9353126883506775, -0.8284487575292587 l-2.9585134983062744, -0.7887062430381775 -2.958570122718811, -0.8093374222517014 l-2.925199568271637, -0.8834507316350937 -2.8837722539901733, -1.007317379117012 l-2.5595521926879883, -1.6113696992397308 -1.435159593820572, -2.6330456137657166 l-0.5119098722934723, -3.077875077724457 -0.35756900906562805, -3.084910213947296 l-2.0956164598464966, -1.7705623805522919 -3.067959249019623, -0.3902648016810417 l-3.1073620915412903, -0.20135337486863136 -3.1146639585494995, -0.171226616948843 l-3.084767162799835, -0.15726406127214432 -2.9826807975769043, 0.6124783679842949 m13.300431966781616, 23.609890937805176 l2.6823121309280396, 1.0957558453083038 2.725120484828949, 1.0897088795900345 l2.7512317895889282, 0.9926541894674301 2.8043007850646973, 0.8743895590305328 l2.8308600187301636, 0.7687138020992279 2.8512921929359436, 0.6783295422792435 l2.85054087638855, 0.5889125540852547 2.8669017553329468, 0.49876268953084946 l2.853502333164215, 0.4489758610725403 2.8593257069587708, 0.3813612088561058 l2.886134386062622, 0.3188532218337059 4.054346084594727, -0.8839327096939087 m-36.492393016815186, -17.71617293357849 l0.24217182770371437, 3.0247703194618225 0.24697383865714073, 3.0652841925621033 l0.27162564918398857, 3.0693185329437256 0.3103020042181015, 3.038983941078186 l0.37188731133937836, 3.0213844776153564 -0.09441264905035496, 3.770945966243744 l-0.3744608163833618, 3.5534092783927917 -0.9432685375213623, 2.7478963136672974 l-2.313017249107361, 1.5664955973625183 m7.1400368213653564, -28.63929033279419 l2.2259588539600372, 1.4756138622760773 1.9892646372318268, 1.7981147766113281 l1.7522484064102173, 1.994462013244629 1.5983951091766357, 2.0007675886154175 l2.1451230347156525, 1.6213490068912506 2.412448227405548, 1.2312068790197372 l2.530491054058075, 1.0401275753974915 2.5741055607795715, 0.9664218872785568 l2.6189544796943665, 0.9107431024312973 2.6598182320594788, 0.8395790308713913 l2.6777073740959167, 0.7384899258613586 2.5608789920806885, 0.9369739890098572 l2.572956681251526, 0.962863489985466 m-28.622934818267822, -16.16784691810608 l2.129601538181305, 1.5783117711544037 2.3056450486183167, 1.2593929469585419 l2.015170007944107, 1.493309736251831 2.250785380601883, 1.228194460272789 l2.064560353755951, 1.3528729975223541 2.2820621728897095, 1.2379828840494156 l2.312871366739273, 1.0985445976257324 2.3772750794887543, 1.0671553760766983 l2.3766037821769714, 1.0332603752613068 2.3968294262886047, 0.9586308896541595 l2.4433793127536774, 0.9833747148513794 2.393898665904999, 1.022288128733635 l2.411331534385681, 0.9829152375459671 m-26.026456356048584, -14.01248812675476 l-2.1114882826805115, 1.3680139183998108 -2.4430817365646362, 2.038046717643738 l-2.8711891174316406, 2.607475519180298 -2.7770736813545227, 3.6500024795532227 l-1.9110900163650513, 4.6659839153289795 " fill="none" stroke="black" stroke-width="1" /></svg>