<?xml version="1.0" encoding="utf-8" ?>
<svg baseProfile="full" height="131.10323475622863" version="1.1" width="1019.4090604249504" xmlns="http://www.w3.org/2000/svg" xmlns:ev="http://www.w3.org/2001/xml-events" xmlns:xlink="http://www.w3.org/1999/xlink"><defs /><rect fill="white" height="131.10323475622863" width="1019.4090604249504" x="0" y="0" /><path d="M25, 25 m0.0, 0.0 m30.308329075687652, 28.823203595384257 l-0.12959805317223072, 3.221179246902466 -0.10270072147250175, 3.2019272446632385 l-0.0002675245013961103, 3.1597301363945007 -0.00018261342120240442, 3.2006683945655823 l-0.00015033082490845118, 3.1728896498680115 -0.0002963122824439779, 3.180026113986969 l-0.00020195679098833352, 3.198460340499878 -0.00031632185709895566, 3.182353377342224 l-0.00017080687030102126, 3.2143184542655945 -0.00023786391466273926, 3.169088661670685 l-0.00023536405933555216, 3.2033276557922363 -9.729829798743594e-05, 3.2129067182540894 l-0.00010278788977302611, 3.2654792070388794 1.8769466876983643, 1.4731104671955109 l3.205430805683136, 0.090132225304842 1.5664981305599213, -1.9099017977714539 l0.043288771994411945, -3.23586106300354 0.00027114310796605423, -3.1987422704696655 l0.07182423025369644, -3.218774199485779 0.09879425168037415, -3.2020506262779236 l1.3453483581542969, 1.8986180424690247 1.3001090288162231, 2.8784140944480896 l1.2747295200824738, 2.8836020827293396 1.2659506499767303, 2.8660497069358826 l1.3323809206485748, 2.8332537412643433 2.3815754055976868, 1.787855476140976 l3.01696240901947, 0.7315895706415176 3.0622059106826782, 0.5600558966398239 l3.052099645137787, 0.47145407646894455 3.110072910785675, 0.13233523815870285 l3.157338798046112, -0.00026005771360360086 3.155653178691864, -0.0003015270340256393 l2.0026008784770966, -1.5972252190113068 0.1776651106774807, -3.056866228580475 l-1.872773915529251, -2.0803454518318176 -2.882486879825592, -1.0238204151391983 l-3.0061641335487366, -0.6837348639965057 -2.998593747615814, -0.6824769079685211 l-2.97947496175766, -0.78269362449646 -2.937674820423126, -1.0096119344234467 l-2.8668689727783203, -1.1584841459989548 -1.7109642922878265, -2.367057204246521 l-0.5405077338218689, -3.0766835808753967 -0.29521098360419273, -3.182688355445862 l-0.24624476209282875, -3.1420859694480896 -0.20454375073313713, -3.126983642578125 l-0.11680657975375652, -3.1100714206695557 -0.126939183101058, -3.1666573882102966 l-0.11402489617466927, -3.102346956729889 -0.11865128763020039, -3.0632740259170532 l-0.17153983935713768, -3.0395352840423584 -0.2531061880290508, -3.0394116044044495 l-2.131297141313553, -1.3999226689338684 -3.0689865350723267, -0.08896661922335625 l-3.048313856124878, 0.1668052189052105 -3.9061564207077026, 1.5794558823108673 l-2.0812584459781647, 2.2616679966449738 m9.723576307296753, 32.742252349853516 l2.4970772862434387, 1.241130456328392 2.9127582907676697, 1.002126783132553 l2.746809422969818, 1.2650147080421448 2.550748586654663, 1.426970213651657 l2.7821850776672363, 1.096126139163971 2.9091092944145203, 0.8828304708003998 l2.924482524394989, 0.6972197443246841 2.9558604955673218, 0.5869423598051071 l2.9358085989952087, 0.5173632130026817 2.931532859802246, 0.4119396209716797 l4.084998071193695, -0.07843214087188244 m-32.07301139831543, -24.30306911468506 l0.0587570620700717, 3.1230267882347107 0.0697245355695486, 3.1237393617630005 l-0.00019781466107815504, 3.2184290885925293 -0.00015649162378394976, 3.246910274028778 l-0.00020770748960785568, 3.3010247349739075 -0.00014833622117293999, 3.2970350980758667 l-0.00017199485228047706, 3.32271009683609 -0.5269233137369156, 3.828532099723816 l-0.8929105848073959, 3.415052592754364 m2.3587431013584137, -32.86041259765625 l-0.023019309155642986, 3.0743858218193054 -0.00015412682841997594, 3.2482829689979553 l-8.413541763729881e-05, 3.275590240955353 -0.00011437549801485147, 3.3143579959869385 l-4.697969416156411e-05, 3.2724183797836304 -0.00015988791346899234, 3.3099400997161865 l-2.4775297333690105e-05, 3.3217406272888184 -0.00015048595741973259, 3.3341431617736816 l-0.00012986947695026174, 3.400256633758545 -0.5196347460150719, 3.848462402820587 m88.91758086199161, -49.60957042681912 l-0.07259953301399946, 3.2116439938545227 -0.08898582309484482, 3.207673728466034 l-0.0003154693331453018, 3.203062117099762 -0.0002583952300483361, 3.217129707336426 l-0.00023494592824135907, 3.212694227695465 -0.00012002804396615829, 3.2017871737480164 l-0.015254347817972302, 3.22573184967041 -0.02141443081200123, 3.1955698132514954 l-8.710682777746115e-05, 3.1622445583343506 -0.00019433382476563565, 3.195154070854187 l-0.00012844578122894745, 3.207412362098694 0.0352342170663178, 3.2028788328170776 l-0.00011300838195893448, 3.222368061542511 1.9378368556499481, 1.5881307423114777 l3.2517635822296143, 0.1937033049762249 1.5977014601230621, -1.8066340684890747 l0.10406649671494961, -3.1839805841445923 0.0003948937592213042, -3.246884346008301 l0.042444728314876556, -3.249281346797943 0.060927439481019974, -3.2008400559425354 l0.08983323350548744, -3.1707295775413513 1.2311146408319473, 2.022416442632675 l1.3414140045642853, 2.852640450000763 1.2710197269916534, 2.8467702865600586 l1.2457220256328583, 2.8377801179885864 1.2336917221546173, 2.848649024963379 l2.16723769903183, 2.0099134743213654 2.9870128631591797, 0.9488687664270401 l3.09440940618515, 0.6378906965255737 3.1690651178359985, 0.24377074092626572 l3.1969797611236572, -0.00033044616429833695 3.200749456882477, -0.00022172724129632115 l3.25996071100235, -0.00022375959815690294 3.198477625846863, -0.0002857114486687351 l1.8148592114448547, -1.8166081607341766 -0.09306849911808968, -3.079627752304077 l-0.9989840537309647, -2.8646495938301086 -2.0509347319602966, -2.136637568473816 l-2.9189258813858032, -0.9890285134315491 -3.129735291004181, -0.5787692219018936 l-3.156435489654541, -0.5866143107414246 -3.0844858288764954, -0.6867498904466629 l-3.0943000316619873, -0.8398605138063431 -2.641194462776184, -1.5750278532505035 l-1.4765574038028717, -2.6148605346679688 -0.5692480504512787, -3.129216432571411 l-0.34928642213344574, -3.1111541390419006 -0.2805619314312935, -3.1013700366020203 l-0.1687208190560341, -3.070506453514099 -0.13426925987005234, -3.0672061443328857 l-0.12755976058542728, -3.035622537136078 -0.16556352376937866, -2.976890504360199 l-0.24593522772192955, -3.0542901158332825 -2.06765279173851, -1.555534154176712 l-3.1478068232536316, -0.12944135814905167 -3.144528567790985, 0.14871695078909397 l-3.178863823413849, 0.22774787619709969 -3.1726375222206116, 1.1973950266838074 m9.21608030796051, 32.3697829246521 l2.5935959815979004, 1.1135149002075195 2.356525957584381, 1.58039391040802 l2.116992324590683, 1.7962582409381866 2.4696362018585205, 1.4062610268592834 l2.395424395799637, 1.3995376229286194 2.6860660314559937, 1.0743448138237 l2.810644209384918, 0.8573700487613678 2.887820601463318, 0.7378837466239929 l2.891528904438019, 0.6163166090846062 2.938760221004486, 0.4753011092543602 l4.603663682937622, 0.09450424462556839 1.8404465913772583, -2.390230745077133 m-33.76312971115112, -22.792656421661377 l2.235252261161804, 1.5297907590866089 1.9150042533874512, 1.943017840385437 l1.612325757741928, 2.064718008041382 2.092284858226776, 1.6770656406879425 l1.9503797590732574, 1.6660702228546143 2.3041798174381256, 1.4601163566112518 l2.117701768875122, 1.5260280668735504 2.28427916765213, 1.4287112653255463 l2.3885075747966766, 1.342603862285614 2.5040319561958313, 1.1475211381912231 l2.545776069164276, 1.093166097998619 2.5176596641540527, 1.0656549781560898 l2.560020089149475, 1.0034019500017166 2.53276526927948, 0.8899931609630585 l2.554630935192108, 0.8742157369852066 1.5297149121761322, -1.0480968654155731 m-33.561158180236816, -21.147994995117188 l0.2406100556254387, 2.941528558731079 -3.571978595573455e-05, 3.2050448656082153 l-0.00020669525838457048, 3.1962141394615173 -0.00017551899873069488, 3.285381495952606 l-0.00023186155885923654, 3.312937319278717 -0.00016062935173977166, 3.345259428024292 l-2.124756974808406e-05, 3.392069637775421 -0.012425851309671998, 4.387589991092682 l-0.5416256561875343, 4.120035767555237 m93.79759204186257, -44.5558930415973 l-0.0004723681558971293, 3.450672924518585 -0.05484189838171005, 3.5036200284957886 l-2.2380791051546112e-05, 3.5115450620651245 -0.044728294014930725, 3.5167816281318665 l-0.0001436772072338499, 3.5251954197883606 0.008795056492090225, 3.475225567817688 l-0.010260655544698238, 3.4869828820228577 -2.2373708361556055e-05, 3.4794440865516663 l-0.00011867239663843066, 3.482411205768585 -0.00020767640307894908, 3.4798622131347656 l-0.000239253986364929, 3.5387197136878967 -0.000108318890852388, 3.5334748029708862 l-0.0001591750879015308, 3.5352662205696106 2.0030778646469116, 1.615195870399475 l3.260852098464966, 0.06947551388293505 1.4305038750171661, -2.1400707960128784 l-0.00013561339073930867, -3.474244475364685 0.000205230935534928, -3.571197986602783 l0.07826556451618671, -3.58309268951416 0.0904769729822874, -3.5018613934516907 l1.5410302579402924, 1.9372189044952393 1.4938715100288391, 3.0955475568771362 l1.4508593082427979, 3.0875927209854126 1.479833722114563, 3.0648833513259888 l2.325853556394577, 2.1440625190734863 3.0349162220954895, 1.1208201944828033 l3.18269282579422, 0.5466718971729279 3.2007530331611633, 0.17865316942334175 l3.2415232062339783, -0.0003260433368268423 3.2409128546714783, -0.00032052514143288136 l3.2434511184692383, -0.00034972719731740654 3.1925565004348755, -0.0002900667277572211 l1.8306061625480652, -2.0506517589092255 -0.10632221587002277, -3.3941054344177246 l-2.1559497714042664, -2.138204574584961 -2.986970841884613, -1.0154437273740768 l-3.051145374774933, -0.8818291872739792 -3.052755296230316, -0.9140889346599579 l-3.061976432800293, -0.9852815419435501 -3.0229556560516357, -1.0526391863822937 l-2.9482465982437134, -1.2314273416996002 -2.5822263956069946, -1.975623369216919 l-1.2600916624069214, -3.0304840207099915 -0.3331906348466873, -3.4612733125686646 l-0.22655759006738663, -3.465222120285034 -0.197028536349535, -3.4615308046340942 l-0.1612427644431591, -3.4033414721488953 -0.16913283616304398, -3.4034880995750427 l-0.19856436178088188, -3.4294316172599792 -0.20605739206075668, -3.4078705310821533 l-0.2603274956345558, -3.405310809612274 -2.0826636254787445, -1.7559920251369476 l-3.1903406977653503, -0.06068150978535414 -3.15998911857605, 0.19730865955352783 l-3.1502440571784973, 0.27319811284542084 -2.728526294231415, 1.7016813158988953 m11.72121524810791, 31.624610424041748 l2.5944307446479797, 1.2930874526500702 1.5133036673069, 2.734977602958679 l0.48375632613897324, 3.202504813671112 -0.151500403881073, 3.2477521896362305 l-1.7385126650333405, 3.288041651248932 -2.4967677891254425, 1.5178011357784271 l-3.064722418785095, 0.37562891840934753 -3.3323511481285095, -0.0003594522422645241 l-4.489879310131073, -1.7956985533237457 -1.3865770399570465, -2.6758775115013123 l-0.6916340440511703, -3.058007061481476 -0.3407580778002739, -3.060803711414337 l-0.1843380182981491, -3.139413297176361 -0.07753251120448112, -3.07688444852829 l-0.027964708860963583, -3.1023064255714417 0.012867231853306293, -3.0672138929367065 l0.0406795646995306, -3.0753231048583984 0.002009737800108269, -3.0713018774986267 l0.006523021147586405, -3.0498871207237244 -0.00041227598558180034, -3.0424922704696655 l-0.002200440503656864, -3.077313005924225 0.17502889037132263, -4.413964152336121 l0.10238920338451862, -4.368014633655548 0.577266551554203, -3.5943353176116943 l1.3260728120803833, -2.834136486053467 2.3168566823005676, -1.8017913401126862 l3.032364845275879, 0.02572455909103155 3.0037277936935425, 0.6468809396028519 l1.7288726568222046, 2.262050062417984 0.7310032844543457, 3.168095648288727 l0.47591742128133774, 3.252512216567993 0.3631933405995369, 3.2665517926216125 l0.27193041518330574, 3.30221951007843 0.20408784970641136, 3.300865590572357 l0.18591979518532753, 3.308345675468445 0.19763750955462456, 3.314102292060852 l0.20887574180960655, 3.293386399745941 0.2290244773030281, 3.3093470335006714 l0.27313146740198135, 3.275609016418457 0.30822833999991417, 3.262960910797119 l0.3169550374150276, 3.2249781489372253 0.34720689058303833, 3.1703555583953857 l0.12904313392937183, 3.8397052884101868 0.19420698285102844, 3.7038832902908325 m83.32533749467984, -45.9078691052855 l-0.11519710533320904, 3.233862817287445 -0.05216512829065323, 3.235032558441162 l-0.000336346602125559, 3.2222455739974976 -0.006977331941016018, 3.213106393814087 l-0.00016498266631970182, 3.246644139289856 -0.00011174524843227118, 3.2330337166786194 l-0.049012890085577965, 3.2601845264434814 -0.0001235908621310955, 3.2201626896858215 l-0.025977629702538252, 3.17808598279953 -0.0001298604820476612, 3.1852534413337708 l-0.0001697857260296587, 3.1939178705215454 -8.833425454213284e-05, 3.192484974861145 l-0.0001314448036282556, 3.221365213394165 1.829664558172226, 1.5863603353500366 l3.2011350989341736, 0.2230602130293846 1.6674207150936127, -1.6781233251094818 l0.22442374378442764, -3.183073401451111 0.00017768563338904642, -3.276059925556183 l0.018692336743697524, -3.1832733750343323 0.00028057511372026056, -3.3039405941963196 l1.2680554389953613, 1.7809799313545227 1.379094272851944, 2.8369924426078796 l1.3735653460025787, 2.79889315366745 2.182544320821762, 2.0618316531181335 l2.76323139667511, 1.3508778810501099 2.924051880836487, 0.9634792804718018 l2.956898510456085, 0.8032632619142532 3.0092445015907288, 0.6293759495019913 l3.0777359008789062, 0.3062649257481098 3.1435412168502808, -0.00033782736863940954 l3.133135437965393, -0.0002659405981830787 3.13142329454422, -0.00029377588361967355 l1.8778400123119354, -1.7490170896053314 0.0850186962634325, -3.0905529856681824 l-0.5831581726670265, -3.0635595321655273 -1.6503912210464478, -2.3192478716373444 l-2.8171977400779724, -1.0401635617017746 -2.946639358997345, -0.7414346933364868 l-2.985062599182129, -0.7032966613769531 -3.016519248485565, -0.7577536255121231 l-2.9784825444221497, -0.8277282118797302 -2.0301665365695953, -2.050321102142334 l-0.9532333165407181, -2.952905595302582 -0.58817557990551, -3.07017058134079 l-0.4467615485191345, -3.0925464630126953 -0.34564606845378876, -3.141148090362549 l-0.270428117364645, -3.0729541182518005 -0.2146703377366066, -3.0192047357559204 l-0.20105285570025444, -3.065410852432251 -0.2763516269624233, -3.0871233344078064 l-0.38062766194343567, -3.097996711730957 -2.195468842983246, -1.3834762573242188 l-3.05255264043808, -0.03789218608289957 -3.0202487111091614, -0.00019315406461828388 l-3.0510690808296204, 0.09480498731136322 -3.0217793583869934, 0.19307533279061317 l-1.5175817906856537, 1.990758627653122 m9.278534054756165, 31.655526161193848 l2.4935050308704376, 1.1979103833436966 2.885758876800537, 0.9702711552381516 l2.7119776606559753, 1.1838554590940475 2.5535085797309875, 1.3672348856925964 l2.760978639125824, 1.0601337254047394 2.8647536039352417, 0.8116748183965683 l2.912883758544922, 0.73831707239151 2.930886149406433, 0.6169229373335838 l2.9196327924728394, 0.5022390931844711 2.902091145515442, 0.4292333871126175 l4.148149490356445, 0.08586656302213669 m-32.76165962219238, -20.58300018310547 l2.346973568201065, 1.5357699990272522 2.017321288585663, 1.9900745153427124 l1.6513876616954803, 2.2103051841259003 1.3726262748241425, 2.3450495302677155 l1.2168267369270325, 2.3163877427577972 1.753307580947876, 2.0071732997894287 l1.7700161039829254, 1.869981288909912 2.1670465171337128, 1.5468873083591461 l2.4725960195064545, 1.1777812242507935 2.640681564807892, 0.8766322582960129 l2.6941385865211487, 0.7695523649454117 2.774237096309662, 0.5984841287136078 l2.7408769726753235, 0.5800243467092514 2.7351772785186768, 0.4813295975327492 m61.38881569358091, -42.213693137509836 l-0.09923679754137993, 3.221331834793091 -0.000131206979858689, 3.2777440547943115 l-0.0002494980981282424, 3.2324182987213135 -0.0002874070924008265, 3.259316384792328 l-0.0001999374944716692, 3.262614905834198 -0.00013937817129772156, 3.2379528880119324 l-0.0002690258406801149, 3.2774722576141357 -0.00018606617231853306, 3.2842066884040833 l-0.0002128261621692218, 3.2708370685577393 -0.0002473753920639865, 3.2547560334205627 l0.006775765214115381, 3.2405248284339905 -0.00018778051526169293, 3.236633539199829 l-0.000182049934664974, 3.222086727619171 2.056427001953125, 1.4485107362270355 l3.3086472749710083, 0.15359805896878242 1.5175990760326385, -1.9379301369190216 l-0.002914738724939525, -3.2798999547958374 0.000303241813526256, -3.308841288089752 l0.10388816706836224, -3.3114269375801086 0.12149153277277946, -3.259643018245697 l1.403592824935913, 1.9749344885349274 1.4310422539710999, 2.859051525592804 l1.4491094648838043, 2.842692732810974 2.234312742948532, 2.2098687291145325 l2.800128161907196, 1.5173779428005219 3.0280834436416626, 1.0249894112348557 l3.1942838430404663, 0.5997337773442268 3.202737271785736, 0.5334053188562393 l3.2611632347106934, 0.16918158158659935 3.3413004875183105, -0.0002300664891663473 l3.278670310974121, -0.0002412758840364404 2.211253196001053, -1.6273534297943115 l0.3092615492641926, -3.0780428647994995 -0.3778396174311638, -3.114319145679474 l-0.806814506649971, -3.018536865711212 -2.512795627117157, -1.6441957652568817 l-3.2016313076019287, -0.5981262773275375 -3.2446658611297607, -0.49760010093450546 l-3.2394614815711975, -0.5097045749425888 -3.211800456047058, -0.6452326476573944 l-3.133097290992737, -0.8678529411554337 -1.7328286170959473, -2.371526062488556 l-0.6812114268541336, -3.1040802597999573 -0.40639910846948624, -3.0995360016822815 l-0.2522829920053482, -3.1031030416488647 -0.156620591878891, -3.149849772453308 l-0.12221966870129108, -3.071977198123932 -0.06568508222699165, -3.1071531772613525 l-0.09518131613731384, -3.064396381378174 -0.15729371458292007, -3.060034215450287 l-2.0660121738910675, -1.7417915165424347 -3.2530733942985535, -0.1651543192565441 l-3.2288092374801636, -0.005453514168038964 -3.2320141792297363, -0.048751793801784515 l-3.4884077310562134, 1.1399070173501968 m8.374813199043274, 31.06480836868286 l2.734452784061432, 1.030515506863594 2.744069993495941, 1.0593101382255554 l2.497435361146927, 1.4204467833042145 2.2716709971427917, 1.6492259502410889 l2.6346242427825928, 1.2591174244880676 2.8039082884788513, 1.0332801938056946 l2.8665652871131897, 0.8692131191492081 2.9463258385658264, 0.6892067939043045 l2.9966366291046143, 0.5596688762307167 2.9898396134376526, 0.47110918909311295 l2.9721176624298096, 0.34709885716438293 2.193189561367035, -1.4452293515205383 m-34.19339179992676, -23.231916427612305 l0.3893713653087616, 3.1060954928398132 0.42097877711057663, 3.1141632795333862 l0.3871508687734604, 3.095247447490692 0.39675064384937286, 3.038042187690735 l-0.02376380143687129, 3.094229996204376 -0.00023465547201340087, 3.15824031829834 l-0.00012075058293703478, 3.1948432326316833 -0.494408942759037, 3.7427937984466553 l-0.9824138879776001, 3.6268705129623413 -1.3025355339050293, 2.8945177793502808 m3.4160980582237244, -35.35132646560669 l0.06937259342521429, 3.001011312007904 -0.17841774970293045, 3.1570202112197876 l9.689523494671448e-06, 3.1922325491905212 3.5956938972958596e-05, 3.2400816679000854 l-0.0001077184879250126, 3.263740837574005 6.077438229112886e-05, 3.299654722213745 l-7.975776838975435e-06, 3.2874509692192078 -2.5431779704376822e-05, 3.287539482116699 l-0.00011555366654647514, 3.3338752388954163 -0.3507634624838829, 3.7588658928871155 m93.6190931153584, -42.00483165784135 l-0.00030854414944769815, 3.449964225292206 -0.09060526266694069, 3.4730198979377747 l-0.13466790318489075, 3.5119816660881042 -0.10134372860193253, 3.477192223072052 l-0.07102826610207558, 3.4794259071350098 -0.05595805123448372, 3.4936803579330444 l-0.00021707995983888395, 3.43925803899765 -0.00016205429346882738, 3.4719792008399963 l-0.00017164253222290426, 3.4822025895118713 -0.00026625062673701905, 3.49888414144516 l-0.0001534300099592656, 3.467308282852173 0.018183724023401737, 3.4623971581459045 l1.886955350637436, 1.8643371760845184 3.3488869667053223, 0.2675848640501499 l1.576550304889679, -2.154252529144287 0.13842931017279625, -3.487015962600708 l0.0002467206468281802, -3.4632092714309692 0.0007778309372952208, -3.4716883301734924 l0.0658960547298193, -3.44926655292511 1.3039813935756683, 2.2158722579479218 l1.3521407544612885, 3.1270864605903625 1.335648000240326, 3.140329420566559 l1.3192996382713318, 3.104231059551239 2.358153909444809, 2.0503272116184235 l2.992165684700012, 1.171880066394806 3.1144514679908752, 0.7126273214817047 l3.1352055072784424, 0.5647973716259003 3.197416663169861, 0.20841745659708977 l3.2279247045516968, -0.0002943921208498068 3.2008612155914307, -0.0003559307151590474 l3.2120543718338013, -0.0002451417640259024 1.9615228474140167, -1.9136972725391388 l0.05300842225551605, -3.376634120941162 -0.5957898870110512, -3.279237449169159 l-1.0198136419057846, -3.2175633311271667 -2.4437014758586884, -1.7636606097221375 l-3.0855002999305725, -0.7985799014568329 -3.145337700843811, -0.4479459673166275 l-3.093097507953644, -0.5366220325231552 -3.0605700612068176, -0.7146378606557846 l-3.0578964948654175, -0.9230834245681763 -1.76422581076622, -2.568587362766266 l-0.5813566967844963, -3.3500507473945618 -0.3364332392811775, -3.3944302797317505 l-0.30097732320427895, -3.42001736164093 -0.2496960386633873, -3.4213638305664062 l-0.15666302293539047, -3.418138027191162 -0.13182110153138638, -3.393259346485138 l-0.17130646854639053, -3.3666518330574036 -0.25058066472411156, -3.3454835414886475 l-2.019595503807068, -1.8002305924892426 -3.145008385181427, -0.2221042849123478 l-3.149254024028778, 0.2527698874473572 -3.132387697696686, 0.38648732006549835 l-3.398755192756653, 2.0732904970645905 -1.5730111300945282, 2.8787580132484436 m10.29293179512024, 26.86659336090088 l2.716757655143738, -1.0371853411197662 3.025268018245697, -0.7643339037895203 l3.040502965450287, -0.629933699965477 3.080413043498993, -0.524071604013443 l4.730890095233917, -0.6240246072411537 4.81902688741684, -0.9598192572593689 l4.939312040805817, -1.1458144336938858 m-23.3658766746521, 5.10706901550293 l2.869206964969635, -1.141863614320755 3.124223053455353, -0.9840467572212219 l3.028137981891632, -0.8766063302755356 3.046054244041443, -0.7941565662622452 l4.943260848522186, -1.0936642438173294 4.842172563076019, -1.3083834946155548 m-20.115387439727783, 6.592260003089905 l2.942762076854706, -1.0874633491039276 3.0937552452087402, -1.1190858483314514 l3.045837879180908, -1.0063572973012924 3.0706512928009033, -0.8767303079366684 l4.815460741519928, -1.450711190700531 4.68556821346283, -1.4650818705558777 m-20.25824785232544, 7.111461162567139 l2.9437389969825745, -1.234394982457161 3.211509883403778, -1.1199838668107986 l3.167169988155365, -1.2133868783712387 3.179560601711273, -1.0032778233289719 l5.007250905036926, -1.3857802748680115 4.784822165966034, -1.3013382256031036 m-21.45843267440796, 8.128260970115662 l3.0394306778907776, -1.2329615652561188 3.291189670562744, -1.161772459745407 l3.2255247235298157, -1.066618263721466 3.2515934109687805, -0.9283498674631119 l5.092904567718506, -1.2226103246212006 m65.66990211439588, -25.011311744901832 l-0.0005622256503556855, 3.4492215514183044 0.004411765548866242, 3.4280049800872803 l-0.00010226272934232838, 3.4145939350128174 -0.0002033884811680764, 3.3990052342414856 l0.03037364687770605, 3.398084342479706 -0.00013493709957401734, 3.3814167976379395 l-0.00022674938009004109, 3.408859372138977 -0.00016672047422616743, 3.385898470878601 l-0.00020987994503229856, 3.4046733379364014 -0.00027325386326992884, 3.407302498817444 l-0.0002146964288840536, 3.4084224700927734 1.742931753396988, 1.921200156211853 l3.183831572532654, 0.2743512950837612 1.6737926006317139, -1.9722835719585419 l0.15808971598744392, -3.3821099996566772 0.00030002871426404454, -3.376084864139557 l0.020984485745429993, -3.371342718601227 0.05052308086305857, -3.3861371874809265 l1.264985352754593, 2.0464439690113068 1.3060660660266876, 3.01262766122818 l1.296476125717163, 3.012373149394989 2.126944363117218, 2.2938476502895355 l2.717389762401581, 1.4604811370372772 2.92636901140213, 1.0602038353681564 l2.999507784843445, 0.9081393480300903 3.0486318469047546, 0.7117465883493423 l3.0628597736358643, 0.5092831328511238 3.0940911173820496, 0.16025347635149956 l3.118375539779663, -0.00032945059501798823 3.103998601436615, -0.0003422695226618089 l1.9111591577529907, -1.9087834656238556 -0.00822654808871448, -3.2569581270217896 l-1.858229637145996, -2.222466468811035 -2.876097559928894, -1.030411422252655 l-2.9875075817108154, -0.8655070513486862 -2.952076494693756, -0.8668252825737 l-2.9803618788719177, -0.8917442709207535 -2.929806411266327, -1.0249169170856476 l-2.8671032190322876, -1.1697177588939667 -2.4841803312301636, -1.9042916595935822 l-1.138145700097084, -2.9813018441200256 -0.706622377038002, -3.221709430217743 l-0.5773213505744934, -3.261948525905609 -0.42926039546728134, -3.2891449332237244 l-0.3247839957475662, -3.2237184047698975 -0.1957256905734539, -3.2371121644973755 l-0.2167985960841179, -3.294546902179718 -0.27147624641656876, -3.2341134548187256 l-1.9198927283287048, -1.8034560978412628 -3.06629478931427, -0.3223314881324768 l-3.229629695415497, -0.0003082617331529036 -3.186296820640564, 0.11259105056524277 l-2.24958136677742, 1.9271475076675415 m11.224480867385864, 30.790343284606934 l2.403593361377716, 1.364513784646988 2.845376431941986, 1.0105642676353455 l2.8879305720329285, 0.9057632088661194 2.707032561302185, 1.162172108888626 l2.503029704093933, 1.4435674250125885 2.7594077587127686, 1.016629934310913 l2.8735125064849854, 0.7894553244113922 2.921457588672638, 0.6267628818750381 l2.8947731852531433, 0.5654970556497574 2.9180505871772766, 0.4365937411785126 m-27.940082550048828, -21.492297649383545 l0.23247942328453064, 3.1656503677368164 0.2717326022684574, 3.199108839035034 l0.2688535489141941, 3.178819715976715 0.26587076485157013, 3.1599152088165283 l0.3088102303445339, 3.1410598754882812 0.07390690501779318, 4.7138988971710205 l-0.11331607587635517, 3.1393080949783325 -0.6271693855524063, 3.3717232942581177 l-1.2025642395019531, 2.9779598116874695 m2.3950856924057007, -33.78000020980835 l0.09242872707545757, 3.0412092804908752 -2.798546347548836e-05, 3.215082287788391 l6.40661824036215e-06, 3.1870320439338684 -0.00010151558853976894, 3.2254454493522644 l-0.00010026657946582418, 3.1946611404418945 -0.00011224922673136462, 3.2357829809188843 l-0.00015031863767944742, 3.2359355688095093 -3.1825875339563936e-05, 3.263617157936096 l-9.642999430070631e-05, 3.296602964401245 -0.4813641309738159, 3.869353234767914 m88.26244772643918, -48.68589146997692 l-0.008655558922328055, 3.2109954953193665 0.0015626836102455854, 3.2733234763145447 l-0.00021733072571805678, 3.23912650346756 -0.013099159114062786, 3.228655457496643 l-0.00032696443668100983, 3.267374336719513 -0.00015404644727823325, 3.2421329617500305 l-0.0003111427213298157, 3.2586365938186646 -0.01620928873308003, 3.2394957542419434 l-0.0002476883673807606, 3.2187506556510925 -0.00022971296857576817, 3.2418814301490784 l-0.00019756966139539145, 3.221060037612915 -0.0002737157410592772, 3.2584020495414734 l1.880100965499878, 1.5382571518421173 3.19083034992218, 0.11446344666182995 l1.3330626487731934, -1.9952648878097534 0.003317735972814262, -3.2322943210601807 l0.00033070271456381306, -3.288831114768982 0.026857824996113777, -3.2675737142562866 l0.040170224383473396, -3.2325756549835205 1.407315731048584, 1.8725061416625977 l1.3386909663677216, 2.8652429580688477 1.3463790714740753, 2.879217565059662 l1.3404536247253418, 2.8678864240646362 1.3618534803390503, 2.8252747654914856 l2.3880548775196075, 1.7182555794715881 2.9799431562423706, 0.8098923414945602 l3.062720000743866, 0.516117550432682 3.0487409234046936, 0.4227454960346222 l3.038153350353241, 0.34873250871896744 3.0638593435287476, 0.04526416305452585 l3.136070966720581, -0.00031977422622730955 2.051101326942444, -1.6586227715015411 l0.25609901174902916, -3.1027039885520935 -0.3279463201761246, -3.116726875305176 l-1.5108473598957062, -2.460464984178543 -2.718134820461273, -1.258750855922699 l-2.988743484020233, -0.6069149076938629 -2.9153266549110413, -0.6104080751538277 l-2.9304125905036926, -0.7277537137269974 -2.9083511233329773, -0.8619075268507004 l-2.5476422905921936, -1.6317962110042572 -1.3461054861545563, -2.7372506260871887 l-0.4378112405538559, -3.227367401123047 -0.26733523234725, -3.1939536333084106 l-0.1875673606991768, -3.2330968976020813 -0.13193462044000626, -3.2337844371795654 l-0.11568214744329453, -3.207966685295105 -0.1427560020238161, -3.1433919072151184 l-0.17297172918915749, -3.1604287028312683 -0.23873642086982727, -3.175155520439148 l-1.990666389465332, -1.500055193901062 -3.0474883317947388, -0.1598798856139183 l-3.0362942814826965, 0.08936358615756035 -3.056705892086029, 0.14333266764879227 l-3.1481555104255676, 1.7742867767810822 m7.290105819702148, 31.271955966949463 l2.545523941516876, 1.0706792771816254 2.285398542881012, 1.5361705422401428 l2.0940598845481873, 1.7651723325252533 2.3455312848091125, 1.4689354598522186 l2.5720563530921936, 1.1981750279664993 2.674517035484314, 0.9412122517824173 l2.7148646116256714, 0.8792878687381744 2.7664849162101746, 0.7497798651456833 l2.7898427844047546, 0.5712936073541641 2.7942997217178345, 0.5123162269592285 l2.817130386829376, 0.31739596277475357 2.2093451023101807, -1.6050606966018677 m-31.032419204711914, -22.78095006942749 l0.2420342154800892, 3.1382614374160767 0.20331187173724174, 3.128247559070587 l0.1570414938032627, 3.1282231211662292 0.15685835853219032, 3.1200221180915833 l-0.0002313461845915299, 3.1669428944587708 -0.00018100701709045097, 3.204331398010254 l-0.0001368660286971135, 3.2165420055389404 -0.27154186740517616, 3.950847089290619 l-0.4920058697462082, 3.4268277883529663 -0.8321204781532288, 2.741813063621521 l-1.5378215909004211, 2.064541280269623 -2.0767471194267273, 0.6322914361953735 l-1.0797753930091858, -2.4782776832580566 0.1893114671111107, -3.1084465980529785 l0.31464923173189163, -3.1414833664894104 0.31384166330099106, -3.155723512172699 l0.2243822067975998, -3.1534233689308167 0.1931474171578884, -3.1309595704078674 l0.16782479360699654, -3.1181490421295166 0.13036278076469898, -3.1309327483177185 l-6.401043719961308e-05, -3.1746652722358704 -0.03764928784221411, -3.190690577030182 l-0.08677366189658642, -5.2243804931640625 0.06603811401873827, -3.1654363870620728 l-0.030957749113440514, -4.808573424816132 0.11878770776093006, -4.425809681415558 m96.84709542068958, -0.5953256752763991 l-0.1976276934146881, 3.2374760508537292 -0.0002863817098841537, 3.313407301902771 l-0.00016534377209609374, 3.3407369256019592 0.012981758918613195, 3.3585768938064575 l-0.0001944359792105388, 3.3339399099349976 -0.031188675202429295, 3.3420395851135254 l-0.043364083394408226, 3.3189982175827026 -0.05029125139117241, 3.2812565565109253 l-0.00024884127924451604, 3.314093053340912 -0.00901831837836653, 3.2741573452949524 l-0.00012644338312384207, 3.278363049030304 -0.00011549618648132309, 3.334518074989319 l-0.0003049950646527577, 3.370087146759033 1.795962154865265, 1.6357068717479706 l3.1937649846076965, 0.29446858912706375 1.5611742436885834, -1.9668123126029968 l0.08121564984321594, -3.2897812128067017 0.0002769505044852849, -3.293502628803253 l0.01610569772310555, -3.3613112568855286 0.0708027696236968, -3.377702236175537 l1.3217084109783173, 1.8628516793251038 1.325894445180893, 2.9785698652267456 l1.3102847337722778, 2.9615795612335205 2.1301397681236267, 2.209005653858185 l2.743910849094391, 1.3631165027618408 2.951662838459015, 0.9551968425512314 l2.969132661819458, 0.8283999562263489 2.97751247882843, 0.7522039860486984 l3.044193685054779, 0.4122697561979294 3.0671563744544983, 0.032623319420963526 l3.096248209476471, -0.0002839919943653513 3.1338220834732056, -0.00029702840038225986 l1.842331439256668, -1.834975779056549 0.015882101142778993, -3.240058124065399 l-0.5881721898913383, -3.184247612953186 -1.6570323705673218, -2.4877308309078217 l-2.7602413296699524, -1.2485740333795547 -2.8914305567741394, -0.947645977139473 l-2.9057103395462036, -0.8706202358007431 -2.940777838230133, -0.9072577208280563 l-2.8730273246765137, -0.9808634966611862 -1.972784399986267, -2.1904657781124115 l-0.8656752854585648, -3.103000819683075 -0.5388134717941284, -3.234272003173828 l-0.46233754605054855, -3.190387189388275 -0.3321783244609833, -3.2109948992729187 l-0.2581975422799587, -3.231978416442871 -0.2162638120353222, -3.2682788372039795 l-0.20646510645747185, -3.2368457317352295 -0.24547772482037544, -3.2312098145484924 l-1.8211634457111359, -1.919911950826645 -3.0062487721443176, -0.3669365867972374 l-3.1121763586997986, -0.00024369332095375285 -3.0802735686302185, 0.07319231051951647 l-3.0408215522766113, 0.12126301415264606 -2.9793140292167664, 1.391933113336563 m11.234537363052368, 31.69346570968628 l2.54279226064682, -1.1293495446443558 2.8074491024017334, -0.8408929407596588 l2.872942090034485, -0.6674814969301224 2.9011154174804688, -0.5502922832965851 l4.533887803554535, -0.7519856840372086 4.522782564163208, -0.9824593365192413 l4.524506032466888, -1.3017116487026215 m-22.676382064819336, 4.117935597896576 l2.8489914536476135, -1.0651713609695435 3.0061468482017517, -0.9636621177196503 l2.965596616268158, -1.0090435296297073 2.9525884985923767, -0.812968909740448 l4.68578040599823, -1.3244293630123138 4.6134063601493835, -1.2684476375579834 m-18.904132843017578, 6.2322998046875 l2.853844165802002, -1.1712048202753067 2.9907816648483276, -1.1673154681921005 l2.9151111841201782, -1.0448198020458221 2.9867374897003174, -0.898507758975029 l4.683752954006195, -1.449824720621109 m-14.508066177368164, 5.954617261886597 l2.860381305217743, -1.151372492313385 2.9124218225479126, -1.1952650547027588 l2.877461016178131, -1.1472187936306 4.33911919593811, -1.7283032834529877 m-11.652487516403198, 6.436019539833069 l2.8626099228858948, -1.214863583445549 2.898613214492798, -1.1927378922700882 l2.857806384563446, -1.179409846663475 4.1664135456085205, -1.608487218618393 m-10.926575660705566, 6.7576003074646 l2.7638766169548035, -1.3624541461467743 2.8746461868286133, -1.2345528602600098 l2.813577353954315, -1.248544529080391 3.936566710472107, -1.7327162623405457 m-10.584241151809692, 6.642521619796753 l2.7523353695869446, -1.386788785457611 2.7820593118667603, -1.3510879874229431 l3.9584609866142273, -1.9705235958099365 m-8.17678689956665, 6.118981838226318 l2.6586943864822388, -1.4793573319911957 2.7077776193618774, -1.428893804550171 l3.7138861417770386, -1.9064702093601227 m68.02435158342178, -29.60381901320943 l0.0019530512508936226, 3.2056164741516113 -0.00496086897328496, 3.2200887799263 l-0.00037553953006863594, 3.1934338808059692 -0.00021664174710167572, 3.211805820465088 l-0.00022036401787772775, 3.2220301032066345 -0.00021536674466915429, 3.233272135257721 l-0.00013492426660377532, 3.268565535545349 -0.00026544656066107564, 3.262695074081421 l-0.0002396199488430284, 3.2621797919273376 -0.00015109987543837633, 3.2587769627571106 l-0.00020803554434678517, 3.2828575372695923 -0.00017922186088981107, 3.275670111179352 l1.6112716495990753, 1.917569637298584 3.102341890335083, 0.4420279338955879 l1.5698452293872833, -1.8362489342689514 0.13504642993211746, -3.1965193152427673 l0.00036355188058223575, -3.290330469608307 0.00019357617929927073, -3.3568155765533447 l5.042081738793058e-05, -3.3428192138671875 1.1969653517007828, 1.8606901168823242 l1.2694022059440613, 2.904619574546814 1.2706249952316284, 2.846304774284363 l1.3840161263942719, 2.7009817957878113 2.1847376227378845, 1.9510215520858765 l2.7950170636177063, 1.1166143417358398 2.8961923718452454, 0.7725518941879272 l2.944011390209198, 0.6915424019098282 2.987779378890991, 0.3421640396118164 l2.9731857776641846, 0.38252878934144974 3.011447787284851, 0.08085723966360092 l3.013441264629364, -0.0002898347156587988 2.751072645187378, -0.780857503414154 l1.1170502752065659, -2.6403644680976868 -0.44706568121910095, -3.116379678249359 l-2.0932677388191223, -1.8579033017158508 -2.8249284625053406, -0.8494823426008224 l-2.8189122676849365, -0.7501307874917984 -2.8192096948623657, -0.8436492085456848 l-2.8016865253448486, -0.9344304352998734 -2.7516481280326843, -1.0453778505325317 l-2.4200615286827087, -1.693613976240158 -1.3936708867549896, -2.684701383113861 l-0.5480407923460007, -3.1478658318519592 -0.3386712819337845, -3.220686912536621 l-0.2732801251113415, -3.1595852971076965 -0.2189316414296627, -3.146211802959442 l-0.19914653152227402, -3.1684958934783936 -0.18349381163716316, -3.130978047847748 l-0.2413664013147354, -3.132936954498291 -0.25876540690660477, -3.0659809708595276 l-1.91611647605896, -1.7707887291908264 -2.9384201765060425, -0.26412026956677437 l-2.988203465938568, -0.000331978480971884 -3.004463315010071, 0.10027225129306316 l-2.960255742073059, 0.1853731833398342 -2.374608665704727, 2.103484719991684 m10.4519522190094, 30.026144981384277 l0.11718751862645149, 2.8973203897476196 0.003448067873250693, 3.17619651556015 l-0.04416340030729771, 3.144727945327759 -0.0001322036678175209, 3.150414824485779 l-3.668987176297378e-06, 3.1904560327529907 1.710803061723709, 1.581168919801712 l1.3856521248817444, -1.958458572626114 0.22123970091342926, -3.1093746423721313 l0.1267414353787899, -3.027750253677368 0.07828515954315662, -3.1167569756507874 l0.0531275849789381, -3.0877742171287537 0.0569278746843338, -3.0582863092422485 l0.057330792769789696, -3.0401843786239624 -0.011307913810014725, -3.037029206752777 l-0.04844439681619406, -3.021005690097809 -0.1270878128707409, -2.9770803451538086 l-0.19967736676335335, -3.0112305283546448 -0.2661897800862789, -2.882544994354248 l-0.338604673743248, -2.883746027946472 -0.7303247600793839, -3.7684932351112366 l-0.745660737156868, -3.991374969482422 -0.34737296402454376, -3.0542728304862976 l0.1217669527977705, -2.321031093597412 " fill="none" stroke="black" stroke-width="1" /></svg>