<?xml version="1.0" encoding="utf-8" ?>
<svg baseProfile="full" height="99.80595516040921" version="1.1" width="81.8865910358727" xmlns="http://www.w3.org/2000/svg" xmlns:ev="http://www.w3.org/2001/xml-events" xmlns:xlink="http://www.w3.org/1999/xlink"><defs /><rect fill="white" height="99.80595516040921" width="81.8865910358727" x="0" y="0" /><path d="M27.93183351866901, 28.373921792954206 m0.0, 3.3912572264671326 l0.0, 3.391256332397461 0.4103444144129753, 3.3305859565734863 l0.8152550458908081, 3.238518536090851 0.1531996764242649, 3.3725768327713013 l-0.25256088003516197, 3.375578820705414 -0.5122215673327446, 3.3323240280151367 l-0.5986351147294044, 3.296179175376892 -0.24213716387748718, 3.3651331067085266 l-0.07964375428855419, 3.3782848715782166 0.0, 3.391260504722595 l0.0, 3.391256332397461 0.3063993528485298, 3.3300060033798218 l0.3363265097141266, 2.5316965579986572 3.198253810405731, 0.31611908227205276 l2.501879334449768, -0.6912004947662354 0.3979327902197838, -3.1811022758483887 l0.0, -3.391256332397461 0.1531996764242649, -3.2380566000938416 l1.6951541602611542, 0.08212568238377571 2.232809066772461, 1.7746219038963318 l2.652319073677063, 1.4210359752178192 2.348877787590027, 1.999419629573822 l2.500845491886139, 1.4282077550888062 3.347569704055786, 0.258752703666687 l2.897002398967743, 0.7629464566707611 2.9804959893226624, 0.771426260471344 l1.712091714143753, -1.0594261437654495 -0.5559643357992172, -2.924853563308716 l-2.5758033990859985, -1.534372717142105 -2.4837540090084076, -2.0421063899993896 l-2.80438095331192, -1.6328419744968414 -2.6030826568603516, -1.8278604745864868 l-0.9122982621192932, -2.8136566281318665 0.10637300089001656, -3.355117440223694 l-1.2212695926427841, -3.030262589454651 -0.8585717529058456, -3.242328464984894 l-0.3388264402747154, -3.3358877897262573 -0.9471412748098373, -3.1313395500183105 l-1.3655094802379608, -3.070695400238037 -0.44494546949863434, -3.3015447854995728 l0.7660003751516342, -3.2182472944259644 -0.9192001074552536, -4.755823910236359 m-11.183582544326782, -0.45776810497045517 l-3.004395365715027, -0.24581506848335266 -0.54023876786232, -2.8229275345802307 l2.625434100627899, 0.012772639747709036 0.1531996764242649, 3.513737916946411 m0.1531996764242649, 0.0 l3.2310807704925537, -0.45776810497045517 3.24043869972229, -0.15258969739079475 l3.338419795036316, 0.3051793947815895 3.212043344974518, 0.9155362099409103 m-5.668392181396484, -1.0681258887052536 l-0.765998363494873, 2.805061936378479 -0.3063993528485298, 3.202439546585083 l-0.9192001074552536, 3.064797520637512 -0.9191980957984924, 2.9478928446769714 l-0.6127987056970596, 2.997373342514038 0.3063993528485298, 3.2646599411964417 l0.4595990478992462, 3.150143027305603 -1.5557681024074554, 0.32010097056627274 l0.4833703860640526, -2.8708529472351074 -0.7660003751516342, -2.714395523071289 l-1.6042867302894592, -2.5358983874320984 -0.0809097196906805, -3.004625141620636 l0.0, -3.391934335231781 -0.1073289755731821, -3.378845751285553 l-0.8118691295385361, -3.8559171557426453 " fill="none" stroke="black" stroke-width="1" /></svg>