<?xml version="1.0" encoding="utf-8" ?>
<svg baseProfile="full" height="106.02317473152652" version="1.1" width="90.4055218398571" xmlns="http://www.w3.org/2000/svg" xmlns:ev="http://www.w3.org/2001/xml-events" xmlns:xlink="http://www.w3.org/1999/xlink"><defs /><rect fill="white" height="106.02317473152652" width="90.4055218398571" x="0" y="0" /><path d="M26.060123915758595, 29.779890852496465 m-0.07163044065237045, 3.326709270477295 l-0.0001820954457798507, 3.441048264503479 -0.054562101140618324, 3.439132571220398 l-0.00019194098058505915, 3.44393789768219 -0.00017953148926608264, 3.450535833835602 l-0.00015803818314452656, 3.4404468536376953 0.00678866752423346, 3.4125640988349915 l-0.028995871543884277, 3.4104490280151367 -0.00020138686522841454, 3.41351181268692 l0.003643515519797802, 3.3938276767730713 -0.0002475754445185885, 3.3848947286605835 l-0.0002402312748017721, 3.3932092785835266 1.929953694343567, 1.719602793455124 l3.263288140296936, 0.3378809615969658 1.6840045154094696, -1.918761134147644 l0.18497375771403313, -3.4373828768730164 0.00036608798836823553, -3.4323954582214355 l-0.010613618651404977, -3.5053327679634094 0.008450980531051755, -3.4050899744033813 l1.3985231518745422, 1.9836664199829102 1.3147211074829102, 3.0571818351745605 l1.2859857082366943, 3.100728690624237 1.288570761680603, 3.0655518174171448 l1.8248486518859863, 2.7107611298561096 2.716538906097412, 1.5225225687026978 l3.053258955478668, 0.7908375561237335 3.1608685851097107, 0.25641879066824913 l3.2050949335098267, -0.0002666664840944577 3.216743767261505, -0.0002525408308429178 l3.2263782620429993, -0.0003190670031472109 3.2228225469589233, -0.00020080458853044547 l1.8281562626361847, -2.0359672605991364 -0.1189585030078888, -3.324747383594513 l-0.6442991644144058, -3.2862916588783264 -1.7891284823417664, -2.584824562072754 l-2.8906142711639404, -1.229393482208252 -3.1244298815727234, -0.6650722771883011 l-3.1598100066184998, -0.6395252048969269 -3.0848371982574463, -0.7103243470191956 l-3.1261926889419556, -0.8854988217353821 -2.7270150184631348, -1.6937781870365143 l-1.375134289264679, -2.9183515906333923 -0.4132567346096039, -3.4015291929244995 l-0.2362300269305706, -3.4207063913345337 -0.20074918866157532, -3.4352046251296997 l-0.17490169033408165, -3.4153085947036743 -0.12851180508732796, -3.435753881931305 l-0.1563575305044651, -3.3566883206367493 -0.2347658947110176, -3.360881209373474 l-0.2621322311460972, -3.299746811389923 -2.1924568712711334, -1.4757156372070312 l-3.145361542701721, 0.033785796258598566 -3.1303411722183228, 0.3261839598417282 l-3.162221908569336, 0.41078735142946243 -3.239195942878723, 2.114620804786682 m8.492658138275146, 32.618021965026855 l2.7124199271202087, 1.1893637478351593 2.3754875361919403, 1.8169423937797546 l2.103550434112549, 2.133597582578659 2.430895119905472, 1.575823575258255 l2.716485559940338, 1.2060580402612686 2.8485316038131714, 0.9408049285411835 l2.901950776576996, 0.7590951025485992 2.946723997592926, 0.6098941713571548 l2.948242723941803, 0.5658233538269997 2.940014898777008, 0.5550194531679153 l2.919982373714447, 0.4164937511086464 2.068578749895096, -1.5066224336624146 m-33.4300422668457, -24.858007431030273 l0.31354162842035294, 3.301156163215637 0.33996250480413437, 3.320229947566986 l0.2885231748223305, 3.302089273929596 0.27794092893600464, 3.291790783405304 l0.2709260582923889, 3.314271569252014 -0.00021700541765312664, 3.349137306213379 l-0.0001567167964822147, 3.4363991022109985 -0.20304078236222267, 4.09290999174118 l-0.46144284307956696, 3.3886197209358215 -0.8922959864139557, 2.6694992184638977 l-1.768462359905243, 1.649385541677475 -2.6868820190429688, -0.21370798349380493 l-1.060657873749733, -2.7914834022521973 0.14376387931406498, -3.264738619327545 l0.2955564111471176, -3.2713624835014343 0.2927883714437485, -3.2725831866264343 l0.28674548491835594, -3.2710692286491394 0.24624312296509743, -3.253036141395569 l0.1657569594681263, -3.2405033707618713 0.14357180334627628, -3.2964766025543213 l0.08588124066591263, -3.2491639256477356 0.0157053058501333, -5.137602686882019 l0.054353359155356884, -3.3321478962898254 0.03856738796457648, -4.756823182106018 l0.025362453889101744, -4.756465256214142 0.3506186231970787, -4.190895855426788 " fill="none" stroke="black" stroke-width="1" /></svg>